<svg width="90" height="109" viewBox="0 0 90 109" fill="none" xmlns="http://www.w3.org/2000/svg">
<path d="M66.0101 95.1337H23.2301C21.6901 95.1337 20.4301 96.3637 20.4001 97.9037L20.2901 103.314C20.2201 106.744 16.65 108.944 13.74 108.834C10.37 108.704 7.56008 105.954 7.55008 102.354L7.53006 97.9537C7.53006 96.3937 6.26005 95.1337 4.71005 95.1337H2.82007C1.25007 95.1237 -0.00994089 93.8437 5.91135e-05 92.2737L0.310057 49.6837L4.20007 17.4637C4.80007 12.4737 7.51005 8.91368 11.9301 6.68368C17.1201 4.07368 22.6701 2.81367 28.4701 1.64367C39.6101 -0.606328 50.5001 -0.546335 61.6001 1.82367C70.5901 3.74366 83.7501 6.69366 84.7501 16.2537C85.9001 27.2937 88.19 37.9037 88.7401 49.0837L89.0601 92.2437C89.0701 93.8137 87.8101 95.0937 86.2401 95.1037H84.4201C82.8601 95.1237 81.6001 96.3937 81.6001 97.9537V102.304C81.6001 105.874 79.1401 108.434 76.0201 108.784C72.7001 109.154 68.9501 107.014 68.9101 103.304L68.8601 97.9237C68.8401 96.3737 67.5801 95.1137 66.0301 95.1137L66.0101 95.1337ZM63.1001 13.7737C64.2701 13.7737 65.4101 12.2937 65.5701 11.3637C65.7201 10.5037 64.8901 8.44366 63.8101 8.44366H25.5401C24.3301 8.43366 23.4501 10.4837 23.6101 11.3737C23.8001 12.4237 24.8001 13.7737 26.1301 13.7737H63.1201H63.1001ZM78.2401 52.7337C80.2801 52.7337 81.4701 50.7637 81.2401 49.0637L77.6901 23.2537C77.4101 21.2037 75.8601 19.2137 73.5501 19.2137H15.74C13.39 19.2137 11.79 20.9937 11.49 23.1537L7.85007 49.0937C7.61007 50.7837 8.96006 52.7337 10.8401 52.7337H78.2301H78.2401ZM19.9701 75.9737C20.9601 71.5037 17.0601 67.6037 12.5901 68.5937C10.3401 69.0937 8.52005 70.9137 8.02005 73.1637C7.03005 77.6337 10.9301 81.5337 15.4001 80.5437C17.6501 80.0437 19.4701 78.2237 19.9701 75.9737ZM81.1301 75.9637C82.1201 71.4837 78.2201 67.5937 73.7501 68.5837C71.4901 69.0837 69.6801 70.9037 69.1801 73.1537C68.1901 77.6337 72.0901 81.5237 76.5601 80.5337C78.8201 80.0337 80.6301 78.2137 81.1301 75.9637Z" fill="#FF4A1A"/>
</svg>
