<svg width="527" height="328" viewBox="0 0 527 328" fill="none" xmlns="http://www.w3.org/2000/svg">
<g clip-path="url(#clip0_1933_2039)">
<path d="M239.201 251.262L239.397 270.556L243.243 268.508L250.41 271.761C251.375 272.2 252.51 272.93 253.249 273.748L252.662 294.512L252.388 306.492L241.765 313.006L216.839 328.009L205.994 320.542L188.6 308.023L188.609 290.816L188.161 290.585L188.117 307.671L148.465 279.049L94.4954 240.082L94.252 235.198C94.2433 235.016 95.1517 234.42 95.0257 234.281L94.3172 233.494V189.7L124.473 172.01L191.412 218.409L191.682 211.96L211.84 200.441L212.688 183.621L207.546 180.733L190.982 192.231L182.55 197.832L172.057 192.083L150.656 180.277C150.151 176.815 150.573 173.754 150.53 170.288L150.464 164.774L150.547 157.599L150.708 150.407L154.946 147.789L154.893 142.127C154.867 139.209 155.002 136.661 155.002 133.778V127.459L164.156 121.941L173.461 127.307L173.692 136.809L207.268 116.858L207.168 96.4633L216.426 91.0754L225.479 96.1415L225.662 105.847L232.499 100.433C233.668 100.251 236.302 100.668 237.076 99.8377L241.366 95.2283L245.49 94.763L286.768 118.823L286.899 149.011L268.396 160.217L288.746 172.554L288.663 200.184L266.97 213.569L265.149 213.721L253.075 206.581C251.893 205.868 250.815 205.372 249.402 205.12L258.199 214.152L258.53 225.601L275.95 215.513L279.201 216.421C279.536 214.408 280.157 213.821 281.722 212.925L377.378 157.96L389.196 160.234L391.217 162.5L394.186 161.217L400.475 164.648L400.553 198.988L394.751 202.458L387.718 198.662L338.93 226.806L311.043 242.826L302.189 247.813L299.343 246.248L298.938 252.366L267.279 270.608L267.231 247.209L260.046 240.373C258.051 238.647 255.987 236.899 253.41 236.207L245.216 234.011C244.365 234.907 243.743 235.481 242.926 235.925L228.352 243.878L239.188 251.249L239.201 251.262ZM227.887 142.066C235.133 134.743 240.827 124.35 234.685 116.253C232.651 113.57 228.978 111.527 225.066 111.605C221.298 111.679 217.743 113.918 215.93 116.393C207.72 127.607 222.915 143.519 225.262 143.432C226.018 143.405 227.205 142.753 227.883 142.071L227.887 142.066ZM286.056 119.454C284.865 119.01 282.761 118.828 281.909 119.354L278.467 123.968L286.056 119.454ZM268.287 129.847L277.184 124.829C276.22 124.485 273.638 124.137 272.842 124.981L268.287 129.847ZM283.113 135.113L283.048 126.685L280.01 128.147V136.652L283.113 135.113ZM277.345 138.339L277.241 130.234L274.238 131.682L274.338 140.375L277.345 138.344V138.339ZM268.77 143.314L271.791 141.692L271.764 133.408C270.521 133.93 269.426 134.561 268.735 135.148L268.77 143.31V143.314ZM266.314 144.975L266.175 136.674L263.093 138.431L263.18 146.88L266.314 144.98V144.975ZM283.117 146.289L283.004 138.005L280.001 139.574L280.088 148.08L283.117 146.289ZM260.516 148.306L260.407 140.122C259.169 140.618 258.199 141.192 257.478 141.866L257.417 150.328L260.512 148.306H260.516ZM277.384 149.554L277.25 141.523L274.207 142.975L274.311 151.515L277.389 149.554H277.384ZM254.305 151.555L254.322 143.666L251.28 145.136L251.228 149.824L254.305 151.555ZM271.851 152.898L271.804 144.54L268.774 146.202L268.783 154.651L271.856 152.903L271.851 152.898ZM247.064 150.481L246.842 148.045L244.056 149.606C243.695 149.807 244.069 151.415 244.186 151.585L247.064 150.485V150.481ZM266.179 156.194L266.201 147.937L263.076 149.907L263.154 156.986C263.541 157.625 266.175 156.986 266.179 156.19V156.194ZM235.746 155.586L240.288 152.203C238.797 151.294 236.902 150.307 235.311 149.759L220.785 158.443L227.909 162.561L235.746 155.586ZM260.594 155.564L260.416 151.294L257.195 153.216L260.594 155.564ZM155.45 165.679L155.072 155.994L152.233 154.512L152.22 164.157L155.45 165.679ZM205.121 165.84L204.938 156.173L201.361 158.838L201.383 168.688L205.116 165.835L205.121 165.84ZM161.648 169.579L161.674 159.904L158.631 158.099L158.71 168.036L161.648 169.575V169.579ZM197.497 171.284L197.428 161.504L193.768 164.174L193.824 173.906L197.497 171.284ZM168.02 173.262L168.107 163.796C167.315 162.943 166.138 162.222 164.886 162.065L164.912 171.293L168.024 173.262H168.02ZM174.083 176.459L174.148 166.805L170.858 165.374L170.927 174.941L174.083 176.454V176.459ZM189.587 176.454L189.574 166.631L185.801 168.918L185.862 178.976L189.587 176.454ZM154.046 169.331L152.264 168.523L152.203 178.072L155.545 179.955C154.311 174.115 156.745 170.375 154.046 169.331ZM179.968 179.703L179.864 169.831L176.973 168.483L176.921 173.649L176.878 178.072L179.968 179.703ZM205.125 179.676L204.977 170.353C203.582 170.819 202.009 171.836 201.348 172.845L201.4 182.268L205.125 179.672V179.676ZM161.552 183.477L161.691 173.802L158.666 172.354L158.649 181.838L161.552 183.477ZM193.855 187.086L197.458 184.342L197.41 175.05L193.816 177.32L193.859 187.091L193.855 187.086ZM168.076 182.607C168.063 181.159 168.489 178.859 167.833 177.615C167.485 176.959 165.703 176.224 164.873 175.959L164.816 185.343L168.115 187.199L168.08 182.607H168.076ZM174.083 190.391L174.205 181.146L170.94 179.155L170.901 188.674L174.083 190.391ZM189.682 189.813L189.578 180.107C188.039 180.842 186.814 181.672 185.779 182.655L185.905 192.352L189.687 189.809L189.682 189.813ZM179.994 193.97L180.098 185.486C180.116 184.068 178.429 182.812 176.895 182.899L176.852 191.939L179.994 193.97ZM230.339 193.5L223.497 189.674L223.923 194.014L230.334 193.5H230.339ZM241.357 204.189L248.281 203.963L232.499 194.722C232.803 196.275 233.711 196.818 234.603 197.675L241.357 204.185V204.189ZM116.058 247.431L116.097 228.58L116.706 227.88C116.823 227.745 116.08 227.119 116.075 226.91L116.067 217.861L116.71 216.813C116.806 216.652 116.088 215.895 116.088 215.691L116.028 205.976L115.636 206.202L115.615 215.165C115.615 215.395 114.88 216 114.989 216.134L115.61 216.904L115.623 247.918C115.224 248.4 114.958 248.64 115.076 248.844L115.902 250.266C115.289 250.81 116.049 250.131 116.584 249.662L116.049 247.435L116.058 247.431ZM160.77 259.815L160.783 249.301L160.439 249.548L160.118 258.232C160.092 258.915 160.161 259.298 160.77 259.811V259.815ZM147.739 270.708L147.809 261.798C148.313 261.398 148.53 261.268 148.391 261.15L147.387 260.311L147.313 277.153L147.748 276.927L147.8 272.926L148.409 271.974C148.513 271.813 147.73 270.969 147.735 270.708H147.739ZM160.696 266.738L160.791 261.507L159.961 261.49L160.213 281.227L160.7 266.738H160.696Z" fill="#FF4A1A"/>
<path d="M310.123 99.2984L293.602 109.074L236.385 73.4638L219.634 63.0274C219.778 65.8452 219.917 68.1195 219.634 70.9939L150.113 126.081L150.104 134.165L129.963 150.511L126.66 149.872L126.221 153.572L76.5064 194.831L74.3289 193.261L73.829 197.01L62.4153 207.416L56.6433 212.964L39.9182 201.745L26.1053 192.413L25.6445 184.982C26.4704 183.938 28.0307 182.825 29.1869 182.007L43.4171 171.914L46.1857 169.827L96.3653 130.264L100.112 127.377L120.54 110.887L125.312 109.996C127.025 109.678 128.238 109.587 129.794 110.9L175.566 74.7727L201.597 54.2347L206.725 53.8433L206.904 50.4167L224.22 40.4499L226.232 40.0324L226.623 29.4916L248.486 16.9157C249.799 16.1634 250.85 16.7287 251.515 17.9159L258.287 30.0787L266.65 25.3431L274.677 39.5758L282.857 34.6794L291.063 49.2339L298.174 45.1202C298.648 44.8462 299.948 45.0115 300.243 45.5463L307.41 58.6963L315.621 54.0781L323.779 68.363L333.276 63.0709L338.227 71.5331L349.753 92.0102L377.818 108.287L381.474 110.861L408.374 95.002C412.338 95.7674 416.575 96.2544 420.265 97.6546L431.466 107.843L431.749 118.606C431.84 122.115 431.97 125.503 431.444 128.947L387.524 154.598L364.062 141.266L364.318 131.164L360.572 132.525L355.238 129.59L341.021 121.324L338.818 122.28L318.029 110.213L318.016 101.534L310.396 96.8501L310.131 99.3114L310.123 99.2984Z" fill="#FF4A1A"/>
<path d="M295.445 270.23C297.462 274.696 295.584 279.183 291.185 281.275C287.147 283.193 282.527 281.101 280.802 277.161C278.959 272.961 280.689 268.273 285.183 266.421L285.27 263.581C286.469 261.502 289.034 260.276 291.507 261.411L352.505 226.971L367.287 218.626L419.357 189.047L431.988 191.226L432.288 203.315C432.318 204.593 431.592 205.794 430.341 206.289L382.886 233.041L298.479 280.536L298.322 270.152L295.453 270.23H295.445ZM291.416 269.004C291.416 268.256 290.807 267.647 290.06 267.647C289.312 267.647 288.703 268.256 288.703 269.004C288.703 269.752 289.312 270.36 290.06 270.36C290.807 270.36 291.416 269.752 291.416 269.004ZM290.785 276.892L288.43 277.962L290.607 271.639C288.677 270.426 286.93 271.474 285.909 273.191L287.743 272.487L285.813 277.883C285.713 278.166 285.852 279.127 286.009 279.34C286.665 280.24 289.677 278.862 290.785 276.892Z" fill="#FF4A1A"/>
<path d="M446.452 179.207L446.099 184.956L405.36 161.139L405.273 150.798C405.269 150.102 406.012 148.863 406.443 148.411L432.356 132.956L432.717 145.623L416.526 155.168L446.169 172.423L446.456 179.203L446.452 179.207Z" fill="#FF4A1A"/>
<path d="M344.393 166.948L331.545 174.532L317.949 166.635L317.971 150.898L331.006 143.131L342.854 149.811C343.419 150.128 344.262 151.324 344.267 151.937L344.389 166.944L344.393 166.948Z" fill="#FF4A1A"/>
<path d="M451.91 197.962L444.343 194.292L446.251 199.806L445.182 200.171L442.344 192.609L449.568 190.143C449.954 190.013 450.35 191.313 449.946 191.439L444.821 193.061L452.106 196.575L451.906 197.958L451.91 197.962Z" fill="#FF4A1A"/>
<path d="M69.1737 230.619L62.289 235.189L61.5762 234.089L68.4001 229.489L62.8453 228.415L63.1105 227.232L70.934 228.584L69.378 236.064L68.0089 236.407L69.1737 230.619Z" fill="#FF4A1A"/>
<path d="M275.29 290.077L268.945 285.698L269.697 290.633C269.731 290.877 269.162 291.229 268.623 291.464L267.119 283.493L275.09 282.245L275.147 283.584L269.566 284.345L275.742 288.842L276.373 289.489C276.473 289.59 275.408 290.155 275.29 290.077Z" fill="#FF4A1A"/>
<path d="M443.913 125.242L437.528 128.929L442.888 130.282C443.096 130.334 443.109 131.412 442.892 131.39L441.74 131.264L435.068 129.651L436.907 122.872L437.194 121.972C437.259 121.771 438.154 122.119 438.35 122.228L436.981 127.716L443.47 123.941C443.713 123.802 444.526 123.811 444.539 124.024C444.557 124.337 444.27 125.042 443.913 125.242Z" fill="#FF4A1A"/>
<path d="M210.636 38.3192L202.482 37.4843C204.59 36.7016 206.199 36.8712 208.402 36.8277L202.8 31.1138C202.517 30.8268 203.673 30.0049 203.973 30.318L209.376 35.9667C209.341 34.1664 209.193 32.2922 209.893 30.0049C210.736 33.1228 210.641 35.5101 210.636 38.3192Z" fill="#FF4A1A"/>
<path d="M1.30393 243.095H5.88072V241.986H1.30393V239.182H6.44141V238.047H0V247.179H6.62396V246.044H1.30393V243.095Z" fill="#FF4A1A"/>
<path d="M15.282 244.848L9.80555 238.047H8.73633V247.179H10.0403V240.373L15.5168 247.179H16.586V238.047H15.282V244.848Z" fill="#FF4A1A"/>
<path d="M18.0078 239.182H21.1372V247.179H22.4281V239.182H25.5576V238.047H18.0078V239.182Z" fill="#FF4A1A"/>
<path d="M32.5854 244.021C33.1504 243.769 33.5851 243.404 33.8893 242.934C34.1936 242.465 34.3457 241.891 34.3457 241.23C34.3457 240.23 34.0067 239.447 33.3286 238.886C32.6506 238.325 31.7205 238.047 30.5382 238.047H26.9785V247.179H28.2824V244.4H30.5382C30.7382 244.4 30.9338 244.391 31.1163 244.378L33.0809 247.179H34.5022L32.3333 244.117C32.4202 244.087 32.5072 244.061 32.5854 244.021ZM30.4991 243.291H28.2824V239.182H30.4991C31.3336 239.182 31.9682 239.36 32.3985 239.716C32.8288 240.073 33.0418 240.577 33.0418 241.23C33.0418 241.882 32.8245 242.391 32.3985 242.752C31.9682 243.113 31.3336 243.291 30.4991 243.291Z" fill="#FF4A1A"/>
<path d="M39.2096 238.047L35.0762 247.179H36.4192L37.4232 244.896H42.2782L43.2822 247.179H44.6514L40.5049 238.047H39.214H39.2096ZM37.8796 243.852L39.8486 239.373L41.8175 243.852H37.8796Z" fill="#FF4A1A"/>
<path d="M52.4216 238.621C51.6784 238.238 50.8178 238.047 49.8485 238.047H46.002V247.179H49.8485C50.8221 247.179 51.6784 246.987 52.4216 246.605C53.1649 246.222 53.7429 245.687 54.1559 245C54.5688 244.313 54.773 243.517 54.773 242.613C54.773 241.708 54.5644 240.912 54.1559 240.225C53.7429 239.538 53.1649 239.003 52.4216 238.621ZM53.0171 244.404C52.7128 244.922 52.2825 245.326 51.7305 245.613C51.1785 245.9 50.5266 246.044 49.766 246.044H47.3015V239.182H49.766C50.5222 239.182 51.1742 239.325 51.7305 239.612C52.2825 239.899 52.7085 240.299 53.0171 240.812C53.3213 241.325 53.4735 241.926 53.4735 242.613C53.4735 243.3 53.3213 243.891 53.0171 244.404Z" fill="#FF4A1A"/>
<path d="M63.4615 247.179H64.8306L60.6841 238.047H59.3932L55.2598 247.179H56.6028L57.6068 244.896H62.4618L63.4658 247.179H63.4615ZM58.0632 243.852L60.0321 239.373L62.0011 243.852H58.0632Z" fill="#FF4A1A"/>
<path d="M156.585 13.1065H161.162V11.9976H156.585V9.19282H161.723V8.05786H155.281V17.1897H161.905V16.0548H156.585V13.1065Z" fill="#FF4A1A"/>
<path d="M170.563 14.8589L165.087 8.05786H164.018V17.1897H165.322V10.3843L170.798 17.1897H171.867V8.05786H170.563V14.8589Z" fill="#FF4A1A"/>
<path d="M173.289 9.19282H176.418V17.1897H177.709V9.19282H180.839V8.05786H173.289V9.19282Z" fill="#FF4A1A"/>
<path d="M187.867 14.0327C188.432 13.7805 188.866 13.4152 189.171 12.9456C189.475 12.476 189.627 11.902 189.627 11.241C189.627 10.2408 189.288 9.45808 188.61 8.89712C187.932 8.33617 187.002 8.05786 185.819 8.05786H182.26V17.1897H183.564V14.411H185.819C186.019 14.411 186.215 14.4023 186.398 14.3893L188.362 17.1897H189.783L187.615 14.1284C187.701 14.098 187.788 14.0719 187.867 14.0327ZM185.78 13.3022H183.564V9.19282H185.78C186.615 9.19282 187.249 9.37111 187.68 9.72769C188.11 10.0843 188.323 10.5887 188.323 11.241C188.323 11.8933 188.106 12.402 187.68 12.763C187.249 13.1239 186.615 13.3022 185.78 13.3022Z" fill="#FF4A1A"/>
<path d="M194.491 8.05786L190.357 17.1897H191.7L192.704 14.9068H197.559L198.563 17.1897H199.933L195.786 8.05786H194.495H194.491ZM193.161 13.8631L195.13 9.38416L197.099 13.8631H193.161Z" fill="#FF4A1A"/>
<path d="M207.703 8.63187C206.96 8.2492 206.099 8.05786 205.13 8.05786H201.283V17.1897H205.13C206.103 17.1897 206.96 16.9984 207.703 16.6157C208.446 16.2331 209.024 15.6982 209.437 15.0111C209.85 14.3241 210.054 13.5283 210.054 12.6238C210.054 11.7193 209.846 10.9235 209.437 10.2365C209.024 9.5494 208.446 9.01454 207.703 8.63187ZM208.298 14.4154C207.994 14.9329 207.564 15.3373 207.012 15.6243C206.46 15.9113 205.808 16.0548 205.047 16.0548H202.583V9.19282H205.047C205.803 9.19282 206.455 9.33632 207.012 9.62333C207.564 9.91033 207.99 10.3104 208.298 10.8235C208.603 11.3366 208.755 11.9367 208.755 12.6238C208.755 13.3109 208.603 13.9023 208.298 14.4154Z" fill="#FF4A1A"/>
<path d="M218.743 17.1897H220.112L215.965 8.05786H214.674L210.541 17.1897H211.884L212.888 14.9068H217.743L218.747 17.1897H218.743ZM213.344 13.8631L215.313 9.38416L217.282 13.8631H213.344Z" fill="#FF4A1A"/>
<path d="M275.724 306.397H280.301V305.288H275.724V302.483H280.861V301.348H274.42V310.48H281.044V309.345H275.724V306.397Z" fill="#FF4A1A"/>
<path d="M289.702 308.153L284.225 301.348H283.156V310.48H284.46V303.679L289.937 310.48H291.006V301.348H289.702V308.153Z" fill="#FF4A1A"/>
<path d="M292.428 302.483H295.557V310.48H296.848V302.483H299.977V301.348H292.428V302.483Z" fill="#FF4A1A"/>
<path d="M307.005 307.323C307.57 307.071 308.005 306.705 308.309 306.236C308.614 305.766 308.766 305.192 308.766 304.531C308.766 303.531 308.427 302.748 307.749 302.187C307.071 301.626 306.14 301.348 304.958 301.348H301.398V310.48H302.702V307.701H304.958C305.158 307.701 305.354 307.692 305.536 307.679L307.501 310.48H308.922L306.753 307.418C306.84 307.388 306.927 307.362 307.005 307.323ZM304.919 306.592H302.702V302.483H304.919C305.754 302.483 306.388 302.661 306.818 303.018C307.249 303.374 307.462 303.879 307.462 304.531C307.462 305.183 307.244 305.692 306.818 306.053C306.388 306.414 305.754 306.592 304.919 306.592Z" fill="#FF4A1A"/>
<path d="M313.63 301.348L309.496 310.48H310.839L311.843 308.197H316.698L317.702 310.48H319.071L314.925 301.348H313.634H313.63ZM312.3 307.153L314.268 302.674L316.237 307.153H312.3Z" fill="#FF4A1A"/>
<path d="M326.842 301.922C326.098 301.539 325.238 301.348 324.268 301.348H320.422V310.48H324.268C325.242 310.48 326.098 310.288 326.842 309.906C327.585 309.523 328.163 308.988 328.576 308.301C328.989 307.614 329.193 306.818 329.193 305.914C329.193 305.009 328.984 304.214 328.576 303.527C328.163 302.839 327.585 302.305 326.842 301.922ZM327.437 307.71C327.133 308.227 326.702 308.632 326.15 308.919C325.598 309.206 324.946 309.349 324.186 309.349H321.721V302.487H324.186C324.942 302.487 325.594 302.631 326.15 302.918C326.702 303.205 327.128 303.605 327.437 304.118C327.741 304.631 327.893 305.231 327.893 305.918C327.893 306.605 327.741 307.197 327.437 307.71Z" fill="#FF4A1A"/>
<path d="M337.881 310.48H339.251L335.104 301.348H333.813L329.68 310.48H331.023L332.027 308.197H336.882L337.886 310.48H337.881ZM332.483 307.153L334.452 302.674L336.421 307.153H332.483Z" fill="#FF4A1A"/>
<path d="M463.472 198.54H468.049V197.431H463.472V194.627H468.609V193.492H462.168V202.624H468.792V201.489H463.472V198.54Z" fill="#FF4A1A"/>
<path d="M477.45 200.297L471.974 193.492H470.904V202.624H472.208V195.818L477.685 202.624H478.754V193.492H477.45V200.297Z" fill="#FF4A1A"/>
<path d="M480.176 194.627H483.305V202.624H484.596V194.627H487.726V193.492H480.176V194.627Z" fill="#FF4A1A"/>
<path d="M494.753 199.467C495.318 199.214 495.753 198.849 496.057 198.379C496.362 197.91 496.514 197.336 496.514 196.675C496.514 195.675 496.175 194.892 495.497 194.331C494.819 193.77 493.888 193.492 492.706 193.492H489.146V202.624H490.45V199.845H492.706C492.906 199.845 493.102 199.836 493.284 199.823L495.249 202.624H496.67L494.501 199.562C494.588 199.532 494.675 199.506 494.753 199.467ZM492.667 198.736H490.45V194.627H492.667C493.502 194.627 494.136 194.805 494.566 195.162C494.997 195.518 495.21 196.023 495.21 196.675C495.21 197.327 494.992 197.836 494.566 198.197C494.136 198.558 493.502 198.736 492.667 198.736Z" fill="#FF4A1A"/>
<path d="M501.378 193.492L497.244 202.624H498.587L499.591 200.341H504.446L505.45 202.624H506.819L502.673 193.492H501.382H501.378ZM500.048 199.297L502.017 194.818L503.985 199.297H500.048Z" fill="#FF4A1A"/>
<path d="M514.59 194.066C513.846 193.683 512.986 193.492 512.016 193.492H508.17V202.624H512.016C512.99 202.624 513.846 202.432 514.59 202.05C515.333 201.667 515.911 201.132 516.324 200.445C516.737 199.758 516.941 198.962 516.941 198.058C516.941 197.153 516.732 196.357 516.324 195.67C515.911 194.983 515.333 194.448 514.59 194.066ZM515.185 199.854C514.881 200.371 514.45 200.775 513.898 201.062C513.346 201.349 512.695 201.493 511.934 201.493H509.469V194.631H511.934C512.69 194.631 513.342 194.775 513.898 195.062C514.45 195.349 514.876 195.749 515.185 196.262C515.489 196.775 515.641 197.375 515.641 198.062C515.641 198.749 515.489 199.34 515.185 199.854Z" fill="#FF4A1A"/>
<path d="M525.629 202.624H526.999L522.852 193.492H521.561L517.428 202.624H518.771L519.775 200.341H524.63L525.634 202.624H525.629ZM520.231 199.297L522.2 194.818L524.169 199.297H520.231Z" fill="#FF4A1A"/>
<path d="M452.841 119.515H457.418V118.406H452.841V115.601H457.978V114.466H451.537V123.598H458.161V122.463H452.841V119.515Z" fill="#FF4A1A"/>
<path d="M466.819 121.271L461.343 114.466H460.273V123.598H461.577V116.793L467.054 123.598H468.123V114.466H466.819V121.271Z" fill="#FF4A1A"/>
<path d="M469.545 115.601H472.674V123.598H473.965V115.601H477.095V114.466H469.545V115.601Z" fill="#FF4A1A"/>
<path d="M484.123 120.441C484.688 120.189 485.122 119.823 485.426 119.354C485.731 118.884 485.883 118.31 485.883 117.649C485.883 116.649 485.544 115.866 484.866 115.305C484.188 114.744 483.258 114.466 482.075 114.466H478.516V123.598H479.82V120.819H482.075C482.275 120.819 482.471 120.811 482.653 120.798L484.618 123.598H486.039L483.87 120.537C483.957 120.506 484.044 120.48 484.123 120.441ZM482.036 119.71H479.82V115.601H482.036C482.871 115.601 483.505 115.779 483.936 116.136C484.366 116.492 484.579 116.997 484.579 117.649C484.579 118.301 484.362 118.81 483.936 119.171C483.505 119.532 482.871 119.71 482.036 119.71Z" fill="#FF4A1A"/>
<path d="M490.747 114.466L486.613 123.598H487.956L488.96 121.315H493.815L494.819 123.598H496.188L492.042 114.466H490.751H490.747ZM489.417 120.271L491.386 115.792L493.355 120.271H489.417Z" fill="#FF4A1A"/>
<path d="M503.959 115.04C503.216 114.657 502.355 114.466 501.386 114.466H497.539V123.598H501.386C502.359 123.598 503.216 123.407 503.959 123.024C504.702 122.641 505.28 122.106 505.693 121.419C506.106 120.732 506.31 119.936 506.31 119.032C506.31 118.128 506.102 117.332 505.693 116.645C505.28 115.958 504.702 115.423 503.959 115.04ZM504.554 120.824C504.25 121.341 503.82 121.745 503.268 122.032C502.716 122.319 502.064 122.463 501.303 122.463H498.839V115.601H501.303C502.059 115.601 502.711 115.745 503.268 116.032C503.82 116.319 504.246 116.719 504.554 117.232C504.858 117.745 505.011 118.345 505.011 119.032C505.011 119.719 504.858 120.31 504.554 120.824Z" fill="#FF4A1A"/>
<path d="M514.999 123.598H516.368L512.221 114.466H510.93L506.797 123.598H508.14L509.144 121.315H513.999L515.003 123.598H514.999ZM509.6 120.271L511.569 115.792L513.538 120.271H509.6Z" fill="#FF4A1A"/>
<path d="M118.515 266.956C117.971 266.521 117.402 266.208 116.802 266.016C116.202 265.825 115.598 265.76 114.994 265.816C114.39 265.873 113.816 266.042 113.273 266.329C112.73 266.616 112.243 267.025 111.817 267.551C111.391 268.077 111.095 268.638 110.93 269.234C110.765 269.826 110.717 270.421 110.787 271.021C110.856 271.622 111.048 272.191 111.36 272.743C111.673 273.291 112.099 273.783 112.638 274.222C113.195 274.67 113.777 274.987 114.394 275.17C115.011 275.353 115.629 275.396 116.246 275.292L116.102 274.118C115.598 274.191 115.12 274.161 114.668 274.026C114.216 273.891 113.799 273.67 113.416 273.357C113.016 273.035 112.699 272.67 112.469 272.256C112.234 271.848 112.095 271.417 112.039 270.969C111.982 270.521 112.026 270.078 112.156 269.63C112.286 269.182 112.512 268.765 112.83 268.369C113.147 267.977 113.508 267.669 113.916 267.447C114.325 267.225 114.755 267.09 115.198 267.051C115.646 267.008 116.094 267.06 116.546 267.199C116.998 267.338 117.424 267.569 117.819 267.895C118.206 268.208 118.51 268.569 118.736 268.978C118.962 269.391 119.097 269.847 119.136 270.347L120.31 270.239C120.279 269.613 120.11 269.017 119.797 268.456C119.484 267.895 119.054 267.395 118.506 266.951L118.515 266.956Z" fill="#FF4A1A"/>
<path d="M118.062 276.266C117.871 276.114 117.658 276.048 117.419 276.066C117.18 276.083 116.98 276.196 116.815 276.401C116.649 276.605 116.584 276.827 116.615 277.066C116.645 277.309 116.754 277.505 116.941 277.657C117.123 277.805 117.332 277.866 117.571 277.84C117.81 277.814 118.01 277.701 118.175 277.496C118.34 277.292 118.405 277.075 118.379 276.84C118.349 276.605 118.245 276.414 118.062 276.266Z" fill="#FF4A1A"/>
<path d="M128.103 280.345C127.864 280.01 127.625 279.679 127.377 279.366C127.129 279.049 126.916 278.744 126.734 278.453C126.551 278.162 126.438 277.875 126.399 277.596C126.36 277.318 126.442 277.057 126.642 276.805C126.812 276.596 127.025 276.453 127.277 276.379C127.533 276.305 127.829 276.322 128.168 276.427C128.507 276.531 128.876 276.748 129.276 277.07C129.594 277.327 129.885 277.635 130.15 278.001C130.415 278.366 130.619 278.77 130.758 279.223L131.749 278.679C131.615 278.236 131.389 277.796 131.071 277.361C130.754 276.927 130.389 276.54 129.976 276.209C129.354 275.705 128.768 275.387 128.211 275.248C127.659 275.109 127.164 275.118 126.721 275.27C126.277 275.422 125.912 275.683 125.617 276.048C125.312 276.427 125.138 276.801 125.099 277.166C125.06 277.531 125.112 277.888 125.251 278.236C125.391 278.583 125.577 278.927 125.812 279.266C126.047 279.605 126.29 279.931 126.538 280.245C126.786 280.558 127.003 280.862 127.181 281.158C127.359 281.453 127.472 281.74 127.512 282.019C127.551 282.297 127.472 282.558 127.277 282.801C127.107 283.01 126.894 283.149 126.638 283.219C126.382 283.289 126.086 283.262 125.756 283.149C125.421 283.036 125.047 282.815 124.634 282.48C124.182 282.114 123.808 281.684 123.513 281.188C123.217 280.692 123.03 280.218 122.952 279.762L121.939 280.249C122.009 280.74 122.226 281.271 122.587 281.836C122.948 282.401 123.4 282.901 123.939 283.336C124.56 283.841 125.151 284.163 125.712 284.306C126.273 284.45 126.773 284.45 127.216 284.297C127.659 284.15 128.029 283.893 128.316 283.536C128.616 283.162 128.785 282.797 128.82 282.436C128.855 282.075 128.802 281.719 128.663 281.371C128.524 281.023 128.337 280.684 128.098 280.345H128.103Z" fill="#FF4A1A"/>
<path d="M133.235 288.324C132.866 288.381 132.505 288.359 132.157 288.259C131.81 288.159 131.475 287.976 131.158 287.72C130.771 287.407 130.493 287.054 130.323 286.659C130.149 286.263 130.097 285.859 130.158 285.441C130.201 285.137 130.31 284.845 130.48 284.571L134.848 288.094C134.891 288.05 134.939 288.007 134.987 287.955C135.035 287.902 135.074 287.859 135.109 287.815C135.556 287.259 135.834 286.685 135.943 286.085C136.052 285.485 136 284.911 135.787 284.358C135.574 283.806 135.204 283.319 134.687 282.897C134.174 282.484 133.618 282.228 133.018 282.128C132.418 282.032 131.84 282.093 131.271 282.319C130.706 282.545 130.206 282.923 129.776 283.458C129.345 283.993 129.08 284.563 128.989 285.172C128.898 285.776 128.971 286.376 129.219 286.967C129.467 287.559 129.875 288.085 130.449 288.546C130.897 288.907 131.362 289.159 131.84 289.303C132.323 289.446 132.801 289.472 133.274 289.385L133.244 288.32L133.235 288.324ZM131.788 283.363C132.157 283.21 132.536 283.163 132.922 283.223C133.309 283.284 133.67 283.45 134.009 283.724C134.352 284.002 134.596 284.324 134.735 284.685C134.874 285.045 134.909 285.424 134.839 285.815C134.787 286.111 134.67 286.394 134.496 286.659L131.04 283.867C131.266 283.645 131.518 283.476 131.792 283.358L131.788 283.363Z" fill="#FF4A1A"/>
<path d="M142.864 289.594L142.199 290.42C142.207 290.003 142.125 289.607 141.951 289.233C141.721 288.742 141.377 288.311 140.916 287.937C140.395 287.515 139.843 287.25 139.26 287.137C138.678 287.024 138.109 287.063 137.552 287.259C136.996 287.454 136.509 287.811 136.092 288.333C135.679 288.846 135.431 289.398 135.353 289.985C135.275 290.572 135.353 291.142 135.588 291.69C135.818 292.242 136.196 292.725 136.718 293.147C137.179 293.516 137.674 293.76 138.209 293.873C138.582 293.951 138.956 293.947 139.33 293.873L138.982 294.303C138.491 294.912 137.978 295.247 137.439 295.304C136.9 295.36 136.314 295.134 135.679 294.621C135.279 294.299 134.949 293.929 134.684 293.508C134.419 293.086 134.249 292.668 134.175 292.251L133.102 292.625C133.184 293.116 133.401 293.621 133.754 294.134C134.106 294.647 134.527 295.103 135.023 295.499C135.935 296.238 136.809 296.573 137.644 296.508C138.478 296.443 139.278 295.938 140.038 294.99L143.789 290.342L142.868 289.598L142.864 289.594ZM138.652 292.929C138.256 292.855 137.878 292.673 137.518 292.381C137.157 292.09 136.9 291.759 136.74 291.385C136.579 291.012 136.527 290.624 136.579 290.233C136.631 289.842 136.8 289.472 137.079 289.129C137.357 288.785 137.683 288.542 138.052 288.407C138.422 288.272 138.808 288.246 139.208 288.324C139.608 288.407 139.986 288.589 140.343 288.881C140.699 289.172 140.96 289.498 141.121 289.868C141.282 290.237 141.334 290.62 141.282 291.012C141.229 291.403 141.06 291.773 140.782 292.116C140.504 292.46 140.178 292.703 139.808 292.838C139.434 292.973 139.052 293.003 138.652 292.929Z" fill="#FF4A1A"/>
<path d="M147.6 294.877C147.635 294.903 147.67 294.934 147.709 294.964C147.748 294.995 147.783 295.029 147.818 295.069L148.578 294.125C148.065 293.712 147.552 293.46 147.044 293.373C146.622 293.299 146.222 293.351 145.844 293.508L146.579 292.594L145.644 291.842L141.307 297.226L142.28 298.013L144.44 295.334C144.914 294.747 145.431 294.416 145.988 294.351C146.544 294.286 147.083 294.464 147.605 294.882L147.6 294.877Z" fill="#FF4A1A"/>
<path d="M153.029 298.287C152.816 297.734 152.446 297.247 151.929 296.826C151.416 296.412 150.86 296.156 150.26 296.056C149.66 295.96 149.082 296.021 148.513 296.247C147.948 296.473 147.448 296.852 147.018 297.386C146.587 297.921 146.322 298.491 146.231 299.1C146.14 299.704 146.214 300.304 146.461 300.896C146.709 301.487 147.118 302.013 147.691 302.474C148.139 302.835 148.604 303.087 149.082 303.231C149.565 303.374 150.043 303.4 150.517 303.313L150.486 302.248C150.117 302.305 149.756 302.283 149.408 302.183C149.061 302.083 148.726 301.9 148.409 301.644C148.022 301.331 147.744 300.978 147.574 300.583C147.4 300.187 147.348 299.782 147.409 299.365C147.452 299.061 147.561 298.769 147.731 298.495L152.099 302.018C152.142 301.974 152.19 301.931 152.238 301.878C152.286 301.826 152.325 301.783 152.359 301.739C152.807 301.183 153.085 300.609 153.194 300.009C153.303 299.409 153.25 298.835 153.038 298.282L153.029 298.287ZM149.043 297.286C149.413 297.134 149.791 297.086 150.178 297.147C150.564 297.208 150.925 297.373 151.264 297.647C151.608 297.926 151.851 298.247 151.99 298.608C152.129 298.969 152.164 299.348 152.094 299.739C152.042 300.035 151.925 300.317 151.751 300.583L148.296 297.791C148.522 297.569 148.774 297.4 149.047 297.282L149.043 297.286Z" fill="#FF4A1A"/>
<path d="M332.562 274.731C332.68 274.296 332.884 273.896 333.171 273.522C333.458 273.148 333.823 272.83 334.266 272.569C334.709 272.309 335.14 272.156 335.6 272.087C336.066 272.017 336.539 272.052 337.026 272.187L337.335 271.048C336.735 270.856 336.122 270.813 335.487 270.908C334.853 271.008 334.236 271.235 333.627 271.595C333.019 271.956 332.536 272.378 332.149 272.874C331.763 273.374 331.489 273.913 331.332 274.496C331.176 275.083 331.132 275.679 331.215 276.287C331.293 276.896 331.506 277.496 331.854 278.079C332.202 278.662 332.623 279.136 333.119 279.497C333.614 279.858 334.157 280.11 334.744 280.253C335.331 280.397 335.935 280.419 336.557 280.314C337.178 280.214 337.787 279.984 338.386 279.627C338.986 279.271 339.499 278.823 339.886 278.31C340.273 277.796 340.525 277.231 340.647 276.614L339.499 276.34C339.391 276.84 339.195 277.275 338.912 277.653C338.63 278.031 338.273 278.344 337.848 278.597C337.422 278.849 336.952 279.027 336.487 279.101C336.022 279.175 335.57 279.162 335.135 279.057C334.701 278.953 334.292 278.762 333.923 278.483C333.549 278.205 333.236 277.849 332.975 277.414C332.714 276.979 332.554 276.531 332.488 276.07C332.423 275.609 332.445 275.161 332.562 274.726V274.731Z" fill="#FF4A1A"/>
<path d="M342.185 275.261C341.976 275.387 341.837 275.561 341.772 275.792C341.707 276.022 341.742 276.248 341.876 276.475C342.011 276.701 342.194 276.84 342.428 276.896C342.663 276.953 342.889 276.918 343.098 276.796C343.306 276.675 343.428 276.501 343.489 276.266C343.55 276.035 343.511 275.805 343.376 275.583C343.241 275.361 343.063 275.218 342.833 275.161C342.602 275.105 342.385 275.14 342.185 275.257V275.261Z" fill="#FF4A1A"/>
<path d="M350.665 267.095C350.291 267.103 349.904 267.16 349.508 267.269C349.113 267.377 348.722 267.486 348.339 267.608C347.957 267.73 347.596 267.825 347.257 267.895C346.918 267.964 346.614 267.969 346.34 267.908C346.066 267.847 345.849 267.677 345.684 267.403C345.544 267.173 345.488 266.925 345.505 266.66C345.527 266.395 345.644 266.121 345.862 265.842C346.079 265.56 346.409 265.29 346.848 265.029C347.2 264.82 347.592 264.655 348.026 264.533C348.461 264.412 348.913 264.364 349.382 264.39L349.222 263.272C348.761 263.242 348.27 263.303 347.748 263.451C347.227 263.598 346.74 263.807 346.283 264.077C345.597 264.486 345.092 264.925 344.766 265.394C344.445 265.864 344.275 266.334 344.267 266.799C344.254 267.264 344.371 267.699 344.61 268.103C344.849 268.508 345.149 268.812 345.479 268.978C345.81 269.143 346.162 269.217 346.535 269.208C346.909 269.199 347.296 269.143 347.696 269.043C348.096 268.943 348.487 268.83 348.865 268.704C349.248 268.577 349.604 268.482 349.947 268.417C350.286 268.351 350.595 268.347 350.869 268.408C351.143 268.469 351.36 268.634 351.521 268.904C351.66 269.134 351.716 269.382 351.69 269.647C351.664 269.912 351.543 270.178 351.321 270.452C351.099 270.726 350.76 271 350.304 271.269C349.804 271.565 349.269 271.769 348.704 271.869C348.139 271.974 347.631 271.982 347.174 271.9L347.279 273.022C347.765 273.126 348.335 273.109 348.991 272.969C349.647 272.83 350.273 272.582 350.869 272.226C351.556 271.817 352.064 271.374 352.394 270.9C352.725 270.426 352.899 269.956 352.912 269.486C352.925 269.017 352.816 268.586 352.581 268.19C352.347 267.795 352.051 267.495 351.725 267.334C351.399 267.173 351.047 267.099 350.673 267.108L350.665 267.095Z" fill="#FF4A1A"/>
<path d="M353.926 262.155C353.456 262.433 353.043 262.768 352.691 263.155C352.339 263.542 352.083 263.951 351.922 264.377L352.848 264.916C352.965 264.586 353.156 264.259 353.421 263.942C353.691 263.625 353.999 263.364 354.352 263.155C354.882 262.838 355.356 262.729 355.768 262.82C356.181 262.911 356.525 263.185 356.794 263.642L356.92 263.855L355.216 264.868C354.625 265.22 354.204 265.577 353.952 265.942C353.695 266.308 353.569 266.664 353.574 267.016C353.574 267.369 353.673 267.708 353.865 268.03C354.056 268.351 354.334 268.612 354.669 268.773C355.003 268.934 355.386 268.986 355.808 268.938C356.229 268.891 356.659 268.734 357.103 268.473C357.65 268.147 358.042 267.777 358.276 267.36C358.442 267.064 358.528 266.764 358.546 266.46L359.011 267.247L360.032 266.642L357.903 263.055C357.42 262.242 356.838 261.763 356.164 261.633C355.486 261.498 354.743 261.672 353.926 262.159V262.155ZM357.69 266.638C357.494 266.999 357.194 267.299 356.79 267.538C356.386 267.777 356.008 267.886 355.668 267.847C355.334 267.808 355.077 267.643 354.904 267.351C354.751 267.099 354.717 266.825 354.799 266.534C354.877 266.242 355.19 265.938 355.725 265.621L357.385 264.633L357.876 265.464C357.946 265.89 357.881 266.282 357.685 266.638H357.69Z" fill="#FF4A1A"/>
<path d="M363.086 257.089C362.604 257.123 362.121 257.284 361.635 257.571C361.096 257.893 360.691 258.28 360.413 258.737C360.209 259.076 360.092 259.432 360.057 259.798L359.522 258.898L358.492 259.511L362.021 265.455L363.099 264.816L361.283 261.755C361.026 261.32 360.887 260.911 360.865 260.528C360.844 260.146 360.935 259.793 361.126 259.476C361.322 259.159 361.609 258.885 361.991 258.658C362.5 258.358 362.982 258.267 363.434 258.393C363.886 258.519 364.286 258.867 364.625 259.446L366.585 262.742L367.663 262.102L365.633 258.68C365.286 258.097 364.894 257.676 364.46 257.419C364.025 257.163 363.564 257.049 363.086 257.084V257.089Z" fill="#FF4A1A"/>
<path d="M371.324 258.789C371.024 258.967 370.746 259.019 370.48 258.941C370.22 258.867 369.989 258.667 369.798 258.345L367.886 255.128L369.589 254.114L369.064 253.227L367.36 254.24L366.586 252.94L365.508 253.579L366.282 254.88L365.273 255.48L365.799 256.367L366.808 255.767L368.746 259.032C369.103 259.633 369.537 259.993 370.059 260.12C370.58 260.246 371.137 260.133 371.737 259.776C371.984 259.628 372.202 259.454 372.389 259.254C372.575 259.05 372.71 258.828 372.788 258.589L371.993 258.015C371.88 258.337 371.654 258.593 371.319 258.793L371.324 258.789Z" fill="#FF4A1A"/>
<path d="M375.18 247.017L376.288 256.98L377.444 256.293L377.14 253.819L381.312 251.34L383.338 252.792L384.516 252.092L376.288 246.361L375.18 247.022V247.017ZM377.001 252.688L376.405 247.831L380.387 250.679L377.001 252.692V252.688Z" fill="#FF4A1A"/>
<path d="M387.005 243.795C386.648 243.656 386.283 243.582 385.914 243.595C385.379 243.613 384.858 243.769 384.358 244.065C383.784 244.409 383.345 244.839 383.041 245.361C382.741 245.883 382.593 246.448 382.602 247.057C382.611 247.666 382.793 248.27 383.154 248.879C383.515 249.488 383.958 249.936 384.493 250.24C385.027 250.54 385.592 250.683 386.196 250.67C386.801 250.657 387.387 250.479 387.965 250.136C388.483 249.827 388.874 249.44 389.143 248.974C389.335 248.635 389.448 248.266 389.487 247.866L390.047 248.809L391.077 248.196L386.136 239.873L385.058 240.512L387.009 243.8L387.005 243.795ZM388.635 247.113C388.648 247.535 388.552 247.922 388.352 248.274C388.152 248.627 387.865 248.914 387.492 249.135C387.118 249.357 386.718 249.479 386.318 249.483C385.918 249.488 385.531 249.388 385.166 249.175C384.797 248.961 384.488 248.648 384.241 248.231C383.993 247.813 383.858 247.383 383.854 246.965C383.849 246.548 383.945 246.165 384.141 245.817C384.336 245.47 384.627 245.178 385.005 244.952C385.384 244.726 385.77 244.617 386.175 244.609C386.579 244.6 386.961 244.7 387.322 244.904C387.683 245.109 387.987 245.426 388.244 245.852C388.5 246.278 388.622 246.692 388.635 247.113Z" fill="#FF4A1A"/>
<path d="M391.214 241.43L390.614 240.421L389.584 241.034L393.113 246.978L394.191 246.339L392.431 243.378C392.044 242.726 391.918 242.13 392.048 241.586C392.179 241.043 392.535 240.599 393.109 240.256L393.226 240.186C393.265 240.16 393.313 240.138 393.361 240.121L392.739 239.077C392.17 239.416 391.757 239.808 391.496 240.256C391.283 240.625 391.188 241.017 391.205 241.43H391.214Z" fill="#FF4A1A"/>
<path d="M393.125 235.481C392.916 235.607 392.781 235.777 392.725 235.994C392.668 236.212 392.699 236.42 392.816 236.62C392.933 236.82 393.099 236.938 393.316 236.99C393.533 237.042 393.746 237.007 393.959 236.881C394.172 236.755 394.311 236.577 394.363 236.359C394.416 236.142 394.381 235.929 394.263 235.729C394.146 235.529 393.981 235.411 393.768 235.364C393.551 235.316 393.338 235.355 393.129 235.477L393.125 235.481Z" fill="#FF4A1A"/>
<path d="M395.174 237.669L394.098 238.308L397.628 244.252L398.704 243.612L395.174 237.669Z" fill="#FF4A1A"/>
<path d="M399.797 233.794L397.406 233.241L396.037 234.055L398.788 234.394L399.797 233.794Z" fill="#FF4A1A"/>
<path d="M401.592 234.624C400.914 234.489 400.17 234.663 399.353 235.15C398.884 235.429 398.471 235.763 398.119 236.151C397.767 236.538 397.51 236.946 397.35 237.372L398.275 237.912C398.393 237.581 398.584 237.255 398.849 236.938C399.119 236.62 399.427 236.359 399.779 236.151C400.31 235.833 400.783 235.724 401.196 235.816C401.609 235.907 401.952 236.181 402.222 236.638L402.348 236.851L400.644 237.864C400.053 238.216 399.631 238.573 399.379 238.938C399.123 239.303 398.997 239.66 399.001 240.012C399.001 240.364 399.101 240.703 399.292 241.025C399.484 241.347 399.762 241.608 400.097 241.769C400.431 241.93 400.814 241.982 401.235 241.934C401.657 241.886 402.087 241.73 402.531 241.469C403.078 241.143 403.469 240.773 403.704 240.356C403.869 240.06 403.956 239.76 403.974 239.455L404.439 240.242L405.46 239.638L403.33 236.051C402.848 235.237 402.265 234.759 401.592 234.629V234.624ZM403.122 239.634C402.926 239.995 402.626 240.295 402.222 240.534C401.818 240.773 401.44 240.882 401.101 240.843C400.766 240.803 400.509 240.638 400.336 240.347C400.183 240.095 400.149 239.821 400.231 239.529C400.31 239.238 400.622 238.934 401.157 238.616L402.817 237.629L403.309 238.46C403.378 238.886 403.313 239.277 403.117 239.634H403.122Z" fill="#FF4A1A"/>
<path d="M278.718 1.30895C279.157 1.20894 279.605 1.20024 280.074 1.27851C280.544 1.35679 280.991 1.53073 281.43 1.79599C281.869 2.06125 282.204 2.36999 282.482 2.74831C282.76 3.12663 282.956 3.56148 283.06 4.05722L284.212 3.7963C284.099 3.17881 283.851 2.61351 283.464 2.09603C283.082 1.58291 282.586 1.14371 281.987 0.774085C281.387 0.404461 280.783 0.178338 280.166 0.069625C279.544 -0.0390879 278.94 -0.0260424 278.349 0.108762C277.758 0.243566 277.21 0.487083 276.71 0.843661C276.21 1.20024 275.78 1.66988 275.428 2.24823C275.076 2.82658 274.859 3.42233 274.772 4.03112C274.685 4.63992 274.719 5.23566 274.867 5.82271C275.015 6.40542 275.28 6.94898 275.663 7.45341C276.045 7.95349 276.532 8.38834 277.127 8.74927C277.723 9.11019 278.357 9.35371 278.992 9.45807C279.627 9.55809 280.244 9.51895 280.844 9.33197L280.548 8.18831C280.057 8.32746 279.579 8.3579 279.114 8.28397C278.649 8.21005 278.205 8.04481 277.784 7.78824C277.362 7.53168 276.984 7.20119 276.701 6.82287C276.415 6.44455 276.219 6.04014 276.106 5.60529C275.993 5.17044 275.971 4.72254 276.045 4.2616C276.115 3.80065 276.284 3.3571 276.545 2.9266C276.806 2.4961 277.127 2.14387 277.501 1.86556C277.875 1.59161 278.284 1.40027 278.722 1.30026L278.718 1.30895Z" fill="#FF4A1A"/>
<path d="M282.769 10.0625C282.561 9.93642 282.339 9.89729 282.104 9.94947C281.87 10.0017 281.687 10.1365 281.548 10.3582C281.409 10.58 281.374 10.8105 281.435 11.0453C281.496 11.2801 281.631 11.4628 281.839 11.5889C282.048 11.715 282.256 11.7454 282.491 11.6889C282.726 11.6323 282.908 11.4932 283.043 11.2714C283.178 11.0496 283.217 10.8235 283.156 10.593C283.095 10.3626 282.969 10.1886 282.765 10.0669L282.769 10.0625Z" fill="#FF4A1A"/>
<path d="M292.34 9.59288C292.779 9.49287 293.24 9.48852 293.709 9.57114C294.183 9.65376 294.64 9.83205 295.087 10.1017C295.535 10.3713 295.887 10.6887 296.174 11.0627C296.461 11.4367 296.669 11.8759 296.8 12.3803L297.912 12.1107C297.799 11.4932 297.547 10.9279 297.156 10.4148C296.765 9.90163 296.261 9.45808 295.644 9.08411C295.026 8.71013 294.418 8.47531 293.792 8.36225C293.166 8.25354 292.558 8.26224 291.962 8.39704C291.367 8.52749 290.819 8.77536 290.319 9.13194C289.819 9.48852 289.389 9.95816 289.037 10.5365C288.685 11.1149 288.468 11.7106 288.381 12.3194C288.294 12.9282 288.329 13.5283 288.481 14.1153C288.633 14.7024 288.902 15.246 289.289 15.7504C289.676 16.2548 290.167 16.6897 290.771 17.0549C291.319 17.3898 291.906 17.6289 292.523 17.7768C293.14 17.9246 293.744 17.9507 294.327 17.8594L296.178 14.8155L295.109 14.1632L293.57 16.6984C293.288 16.7071 293.014 16.6853 292.749 16.6288C292.288 16.5244 291.849 16.3505 291.432 16.0939C290.984 15.8243 290.619 15.4982 290.332 15.1198C290.045 14.7415 289.841 14.3328 289.728 13.8892C289.615 13.45 289.593 12.9978 289.663 12.5368C289.733 12.0759 289.898 11.6323 290.154 11.2105C290.411 10.7887 290.737 10.4278 291.11 10.1495C291.484 9.87554 291.893 9.68855 292.336 9.58853L292.34 9.59288Z" fill="#FF4A1A"/>
<path d="M299.759 15.6808L300.368 14.6807L299.342 14.0588L295.752 19.9685L296.821 20.6207L298.612 17.6768C299.003 17.0289 299.472 16.6375 300.016 16.4984C300.559 16.3592 301.115 16.4636 301.685 16.8114L301.802 16.881C301.841 16.9071 301.885 16.9376 301.924 16.968L302.554 15.933C301.989 15.5895 301.45 15.4069 300.933 15.3895C300.507 15.3721 300.116 15.4765 299.764 15.6852L299.759 15.6808Z" fill="#FF4A1A"/>
<path d="M305.615 17.7941C305.145 17.5114 304.658 17.3027 304.154 17.1722C303.65 17.0418 303.167 17.007 302.715 17.0679L302.672 18.142C303.02 18.0898 303.398 18.1072 303.802 18.1941C304.206 18.2811 304.584 18.4333 304.932 18.6464C305.458 18.9682 305.78 19.3335 305.893 19.7422C306.006 20.151 305.923 20.5815 305.649 21.0381L305.519 21.2511L303.824 20.2205C303.237 19.864 302.724 19.6596 302.285 19.6031C301.846 19.5509 301.468 19.6031 301.159 19.7727C300.851 19.9422 300.599 20.1858 300.403 20.5032C300.208 20.8206 300.108 21.1903 300.125 21.5642C300.142 21.9382 300.273 22.2991 300.512 22.647C300.751 22.9949 301.09 23.3036 301.529 23.5733C302.072 23.9037 302.581 24.0733 303.063 24.0864C303.402 24.0951 303.706 24.0299 303.985 23.9037L303.511 24.6865L304.524 25.304L306.692 21.7382C307.184 20.9294 307.331 20.1945 307.131 19.5335C306.931 18.8725 306.427 18.2985 305.619 17.8028L305.615 17.7941ZM303.42 23.221C303.011 23.2167 302.607 23.0906 302.203 22.8471C301.798 22.6035 301.529 22.3165 301.403 22.0034C301.277 21.6903 301.303 21.386 301.481 21.0946C301.633 20.8424 301.859 20.6815 302.155 20.6163C302.45 20.551 302.863 20.6815 303.398 21.0076L305.045 22.0121L304.545 22.8384C304.202 23.0993 303.828 23.2254 303.42 23.221Z" fill="#FF4A1A"/>
<path d="M314.384 23.5124C314.128 23.1036 313.762 22.7514 313.28 22.4557C312.745 22.1296 312.211 21.9513 311.68 21.9252C311.285 21.9034 310.916 21.9643 310.577 22.1122L311.12 21.2207L310.094 20.5989L306.504 26.5085L307.573 27.1608L309.425 24.1168C309.685 23.6863 309.981 23.3732 310.311 23.1732C310.642 22.9775 310.989 22.8905 311.363 22.9123C311.737 22.934 312.111 23.0601 312.489 23.2906C312.993 23.5994 313.297 23.982 313.402 24.4386C313.506 24.8952 313.38 25.4127 313.032 25.9867L311.042 29.2655L312.111 29.9178L314.175 26.5172C314.527 25.9389 314.714 25.3953 314.736 24.8909C314.758 24.3864 314.64 23.9298 314.388 23.5167L314.384 23.5124Z" fill="#FF4A1A"/>
<path d="M324.63 30.6744C324.587 30.2917 324.478 29.9395 324.295 29.6177C324.03 29.1524 323.648 28.7654 323.152 28.4653C322.579 28.1175 321.992 27.9348 321.392 27.9131C320.788 27.8913 320.223 28.0261 319.688 28.3175C319.154 28.6088 318.706 29.0567 318.341 29.6568C317.976 30.2569 317.784 30.8657 317.767 31.4789C317.75 32.092 317.893 32.6573 318.189 33.1835C318.484 33.7096 318.919 34.1445 319.488 34.4924C320.001 34.8055 320.527 34.9707 321.066 34.9881C321.453 35.0012 321.835 34.9272 322.205 34.7707L321.635 35.7056L322.661 36.3275L327.69 28.0566L326.621 27.4043L324.634 30.67L324.63 30.6744ZM322.466 33.6705C322.1 33.8792 321.714 33.9793 321.309 33.9662C320.905 33.9532 320.518 33.8358 320.145 33.6096C319.771 33.3835 319.48 33.0878 319.288 32.7356C319.097 32.3833 319.006 31.9963 319.019 31.5702C319.032 31.144 319.167 30.7266 319.419 30.3091C319.671 29.8916 319.988 29.5742 320.353 29.3742C320.718 29.1741 321.101 29.0785 321.505 29.0872C321.905 29.0959 322.296 29.2176 322.674 29.4481C323.052 29.6786 323.33 29.9656 323.526 30.3178C323.722 30.67 323.813 31.0571 323.804 31.4702C323.791 31.8833 323.656 32.3051 323.4 32.7269C323.144 33.1487 322.835 33.4574 322.47 33.6662L322.466 33.6705Z" fill="#FF4A1A"/>
<path d="M332.01 34.3707C331.723 33.8532 331.298 33.4183 330.724 33.0705C330.15 32.7226 329.576 32.5486 328.968 32.5312C328.364 32.5138 327.794 32.653 327.264 32.953C326.734 33.2487 326.286 33.6923 325.93 34.2793C325.573 34.8664 325.386 35.4665 325.378 36.0796C325.365 36.6928 325.521 37.2755 325.843 37.8277C326.164 38.38 326.638 38.8453 327.273 39.2323C327.764 39.5323 328.255 39.7193 328.755 39.7976C329.25 39.8759 329.728 39.8411 330.185 39.6889L330.015 38.6409C329.655 38.7453 329.298 38.7714 328.937 38.7192C328.581 38.6626 328.225 38.5322 327.877 38.3191C327.455 38.0626 327.129 37.7495 326.908 37.3798C326.686 37.0102 326.577 36.6145 326.582 36.197C326.582 35.8883 326.656 35.5839 326.786 35.2925L331.58 38.2104C331.619 38.1626 331.658 38.1104 331.697 38.0539C331.737 37.9973 331.771 37.9451 331.797 37.9017C332.167 37.2929 332.367 36.6841 332.397 36.0753C332.428 35.4665 332.297 34.9012 332.015 34.3837L332.01 34.3707ZM329.033 33.6227C329.424 33.6314 329.807 33.7488 330.176 33.9749C330.546 34.2011 330.837 34.4924 331.019 34.8316C331.202 35.1708 331.289 35.5404 331.271 35.9405C331.258 36.2405 331.18 36.5362 331.041 36.8232L327.247 34.5142C327.442 34.2619 327.668 34.0619 327.925 33.9141C328.272 33.714 328.642 33.614 329.033 33.6271V33.6227Z" fill="#FF4A1A"/>
<path d="M341.297 42.5284C341.115 42.2023 340.88 41.8892 340.602 41.5848C340.324 41.2804 340.041 40.9891 339.754 40.7108C339.467 40.4325 339.215 40.1542 338.994 39.8889C338.772 39.6236 338.624 39.354 338.55 39.0844C338.476 38.8148 338.52 38.5409 338.689 38.2669C338.828 38.0364 339.02 37.8668 339.263 37.7625C339.506 37.6538 339.802 37.632 340.154 37.6929C340.502 37.7538 340.897 37.9147 341.336 38.1843C341.684 38.3973 342.014 38.667 342.327 38.9931C342.636 39.3192 342.892 39.6976 343.092 40.1237L344.001 39.454C343.809 39.0322 343.527 38.6278 343.153 38.2365C342.779 37.8451 342.366 37.5146 341.914 37.2363C341.232 36.8188 340.606 36.5797 340.041 36.5144C339.476 36.4492 338.985 36.5231 338.568 36.7319C338.15 36.9406 337.82 37.245 337.577 37.6494C337.333 38.0538 337.203 38.4582 337.212 38.8235C337.22 39.1931 337.32 39.5367 337.503 39.8628C337.685 40.1889 337.916 40.502 338.194 40.8108C338.472 41.1152 338.755 41.4065 339.041 41.6848C339.328 41.9631 339.585 42.2371 339.802 42.5067C340.019 42.7763 340.167 43.0459 340.241 43.3155C340.315 43.5851 340.271 43.8547 340.111 44.12C339.972 44.3505 339.78 44.5157 339.533 44.6157C339.285 44.7157 338.994 44.7331 338.65 44.6636C338.302 44.5983 337.907 44.4244 337.451 44.1504C336.951 43.846 336.525 43.4721 336.168 43.0198C335.812 42.5676 335.564 42.124 335.425 41.6805L334.486 42.298C334.621 42.7763 334.904 43.272 335.338 43.7852C335.769 44.2983 336.281 44.7331 336.877 45.0941C337.559 45.5115 338.189 45.7507 338.763 45.8203C339.337 45.8898 339.832 45.8203 340.254 45.6115C340.676 45.4028 341.006 45.1028 341.245 44.7114C341.484 44.32 341.61 43.9156 341.597 43.5547C341.584 43.1894 341.488 42.8459 341.302 42.5197L341.297 42.5284Z" fill="#FF4A1A"/>
<path d="M347.193 43.0895C346.723 42.8068 346.236 42.5981 345.732 42.4677C345.228 42.3372 344.746 42.3024 344.294 42.3633L344.25 43.4374C344.598 43.3852 344.976 43.4026 345.38 43.4896C345.784 43.5765 346.163 43.7287 346.51 43.9418C347.036 44.2636 347.358 44.6289 347.471 45.0376C347.584 45.4464 347.501 45.8769 347.227 46.3335L347.097 46.5466L345.402 45.516C344.815 45.1594 344.302 44.955 343.863 44.8985C343.424 44.8463 343.046 44.8985 342.738 45.0681C342.429 45.2377 342.177 45.4812 341.981 45.7986C341.786 46.1161 341.686 46.4857 341.703 46.8597C341.72 47.2336 341.851 47.5946 342.09 47.9424C342.329 48.2903 342.668 48.5991 343.107 48.8687C343.65 49.1992 344.159 49.3687 344.641 49.3818C344.98 49.3905 345.285 49.3253 345.563 49.1992L345.089 49.9819L346.102 50.5994L348.271 47.0336C348.762 46.2248 348.909 45.4899 348.71 44.8289C348.51 44.1679 348.005 43.5939 347.197 43.0982L347.193 43.0895ZM344.998 48.5208C344.589 48.5164 344.185 48.3903 343.781 48.1468C343.376 47.9033 343.107 47.6163 342.981 47.3032C342.855 46.9901 342.881 46.6857 343.059 46.3944C343.211 46.1421 343.437 45.9812 343.733 45.916C344.028 45.8508 344.441 45.9813 344.976 46.3074L346.623 47.3119L346.123 48.1381C345.78 48.399 345.406 48.5251 344.998 48.5208Z" fill="#FF4A1A"/>
<path d="M355.962 48.8078C355.706 48.399 355.341 48.0468 354.858 47.7511C354.324 47.425 353.789 47.2467 353.259 47.2206C352.863 47.1988 352.494 47.2597 352.155 47.4076L352.698 46.5161L351.672 45.8943L348.082 51.8039L349.151 52.4562L351.003 49.4122C351.264 48.9817 351.559 48.6686 351.89 48.4686C352.22 48.2729 352.568 48.186 352.941 48.2077C353.315 48.2294 353.689 48.3555 354.067 48.586C354.571 48.8948 354.875 49.2774 354.98 49.734C355.084 50.1906 354.958 50.7081 354.61 51.2821L352.62 54.5609L353.689 55.2132L355.753 51.8126C356.106 51.2343 356.292 50.6907 356.314 50.1863C356.336 49.6818 356.219 49.2253 355.966 48.8121L355.962 48.8078Z" fill="#FF4A1A"/>
<path d="M358.323 56.8873C358.027 56.7046 357.849 56.4829 357.793 56.2133C357.736 55.9437 357.806 55.6523 358.001 55.3305L359.944 52.13L361.639 53.1606L362.174 52.2779L360.479 51.2473L361.265 49.9557L360.196 49.3035L359.409 50.595L358.405 49.9862L357.871 50.8689L358.875 51.4777L356.902 54.7217C356.541 55.3175 356.428 55.8741 356.558 56.3915C356.689 56.909 357.054 57.3482 357.649 57.7092C357.893 57.857 358.149 57.9701 358.418 58.0396C358.684 58.1092 358.944 58.1266 359.192 58.0831L359.327 57.1091C358.992 57.1612 358.657 57.083 358.323 56.8786V56.8873Z" fill="#FF4A1A"/>
<path d="M370.524 54.7654L362.248 60.4185L363.396 61.1186L365.438 59.6879L369.585 62.21L369.254 64.68L370.424 65.3932L371.623 55.4351L370.519 54.7654H370.524ZM366.373 59.0356L370.38 56.2308L369.733 61.0838L366.368 59.0356H366.373Z" fill="#FF4A1A"/>
<path d="M379.316 63.0143C379.059 62.6056 378.694 62.2533 378.212 61.9576C377.677 61.6315 377.142 61.4532 376.612 61.4271C376.217 61.4054 375.847 61.4663 375.508 61.6141L376.051 60.7227L375.026 60.1008L371.436 66.0105L372.505 66.6627L374.356 63.6188C374.617 63.1883 374.913 62.8752 375.243 62.6752C375.573 62.4795 375.921 62.3925 376.295 62.4142C376.669 62.436 377.042 62.5621 377.421 62.7926C377.925 63.1013 378.229 63.484 378.333 63.9406C378.438 64.3972 378.312 64.9146 377.964 65.4886L375.973 68.7674L377.042 69.4197L379.107 66.0192C379.459 65.4408 379.646 64.8972 379.668 64.3928C379.689 63.8884 379.572 63.4318 379.32 63.0187L379.316 63.0143Z" fill="#FF4A1A"/>
<path d="M386.562 68.3543C386.518 67.9716 386.41 67.6194 386.227 67.2976C385.962 66.8323 385.579 66.4453 385.084 66.1453C384.51 65.7974 383.923 65.6147 383.324 65.593C382.719 65.5713 382.154 65.7061 381.62 65.9974C381.085 66.2888 380.637 66.7367 380.272 67.3368C379.907 67.9369 379.716 68.5456 379.699 69.1588C379.681 69.7719 379.825 70.3372 380.12 70.8634C380.416 71.3896 380.85 71.8244 381.42 72.1723C381.933 72.4854 382.459 72.6506 382.998 72.668C383.384 72.6811 383.767 72.6072 384.136 72.4506L383.567 73.3855L384.593 74.0074L389.622 65.7365L388.552 65.0842L386.566 68.35L386.562 68.3543ZM384.397 71.3504C384.032 71.5592 383.645 71.6592 383.241 71.6461C382.837 71.6331 382.45 71.5157 382.076 71.2896C381.702 71.0634 381.411 70.7677 381.22 70.4155C381.029 70.0633 380.937 69.6763 380.95 69.2501C380.963 68.824 381.098 68.4065 381.35 67.989C381.602 67.5716 381.92 67.2541 382.285 67.0541C382.65 66.8541 383.032 66.7584 383.437 66.7671C383.836 66.7758 384.228 66.8976 384.606 67.128C384.984 67.3585 385.262 67.6455 385.458 67.9977C385.653 68.35 385.745 68.737 385.736 69.1501C385.723 69.5632 385.588 69.985 385.332 70.4068C385.075 70.8286 384.767 71.1374 384.401 71.3461L384.397 71.3504Z" fill="#FF4A1A"/>
<path d="M390.621 70.9635L391.229 69.9634L390.203 69.3416L386.613 75.2512L387.683 75.9035L389.473 72.9595C389.864 72.3116 390.334 71.9202 390.877 71.7811C391.42 71.6419 391.977 71.7463 392.546 72.0942L392.664 72.1637C392.703 72.1898 392.746 72.2203 392.785 72.2507L393.415 71.2158C392.85 70.8722 392.311 70.6896 391.794 70.6722C391.368 70.6548 390.977 70.7592 390.625 70.9679L390.621 70.9635Z" fill="#FF4A1A"/>
<path d="M398.762 76.4426C398.792 75.8338 398.662 75.2685 398.379 74.751C398.093 74.2336 397.667 73.7987 397.093 73.4508C396.519 73.1029 395.945 72.929 395.337 72.9116C394.733 72.8942 394.163 73.0334 393.633 73.3334C393.103 73.6291 392.655 74.0727 392.299 74.6597C391.942 75.2468 391.756 75.8469 391.747 76.46C391.734 77.0731 391.89 77.6558 392.212 78.2081C392.534 78.7604 393.007 79.2257 393.642 79.6127C394.133 79.9127 394.624 80.0997 395.124 80.178C395.62 80.2563 396.098 80.2215 396.554 80.0693L396.384 79.0213C396.024 79.1256 395.667 79.1517 395.307 79.0995C394.95 79.043 394.594 78.9126 394.246 78.6995C393.824 78.4429 393.498 78.1298 393.277 77.7602C393.055 77.3906 392.946 76.9949 392.951 76.5774C392.951 76.2687 393.025 75.9643 393.155 75.6729L397.949 78.5908C397.988 78.5429 398.027 78.4908 398.067 78.4342C398.106 78.3777 398.14 78.3255 398.167 78.282C398.536 77.6732 398.736 77.0644 398.766 76.4557L398.762 76.4426ZM395.398 73.9987C395.789 74.0074 396.172 74.1248 396.541 74.351C396.91 74.5771 397.202 74.8684 397.384 75.2076C397.567 75.5468 397.654 75.9164 397.636 76.3165C397.623 76.6165 397.545 76.9122 397.406 77.1992L393.611 74.8902C393.807 74.638 394.033 74.4379 394.289 74.2901C394.637 74.0901 395.007 73.99 395.398 74.0031V73.9987Z" fill="#FF4A1A"/>
<path d="M225.405 128.946C228.66 128.946 231.299 126.307 231.299 123.05C231.299 119.793 228.66 117.153 225.405 117.153C222.15 117.153 219.512 119.793 219.512 123.05C219.512 126.307 222.15 128.946 225.405 128.946Z" fill="#FF4A1A"/>
<path d="M99 243.5L193 311H194L210.5 298.5L205 269L117 202.5L94.5 225.5V240L99 243.5Z" fill="#FF4A1A"/>
<path d="M69.5 201L67 194V176.5L138.5 144L69.5 201Z" fill="#FF4A1A"/>
<path d="M293 280L298.5 280.5L302 269L301 265.5L295 270L293 280Z" fill="#FF4A1A"/>
<path d="M245.5 260.5V233.5L270 238L267.5 270L245.5 260.5Z" fill="#FF4A1A"/>
<path d="M219.5 162.5V154L227.5 147.5H239.5L241.5 153L227 165L219.5 162.5Z" fill="#FF4A1A"/>
<path d="M266.5 133L261.5 130L276 118L286.5 119L286 121.5L280 126.5L266.5 133Z" fill="#FF4A1A"/>
<path d="M2.89 36.999V24.399H11.782V25.965H4.69V36.999H2.89ZM4.51 31.905V30.357H11.008V31.905H4.51ZM19.6342 36.999V34.983L19.5442 34.605V31.167C19.5442 30.435 19.3282 29.871 18.8962 29.475C18.4762 29.067 17.8402 28.863 16.9882 28.863C16.4242 28.863 15.8722 28.959 15.3322 29.151C14.7922 29.331 14.3362 29.577 13.9642 29.889L13.2442 28.593C13.7362 28.197 14.3242 27.897 15.0082 27.693C15.7042 27.477 16.4302 27.369 17.1862 27.369C18.4942 27.369 19.5022 27.687 20.2102 28.323C20.9182 28.959 21.2722 29.931 21.2722 31.239V36.999H19.6342ZM16.5022 37.107C15.7942 37.107 15.1702 36.987 14.6302 36.747C14.1022 36.507 13.6942 36.177 13.4062 35.757C13.1182 35.325 12.9742 34.839 12.9742 34.299C12.9742 33.783 13.0942 33.315 13.3342 32.895C13.5862 32.475 13.9882 32.139 14.5402 31.887C15.1042 31.635 15.8602 31.509 16.8082 31.509H19.8322V32.751H16.8802C16.0162 32.751 15.4342 32.895 15.1342 33.183C14.8342 33.471 14.6842 33.819 14.6842 34.227C14.6842 34.695 14.8702 35.073 15.2422 35.361C15.6142 35.637 16.1302 35.775 16.7902 35.775C17.4382 35.775 18.0022 35.631 18.4822 35.343C18.9742 35.055 19.3282 34.635 19.5442 34.083L19.8862 35.271C19.6582 35.835 19.2562 36.285 18.6802 36.621C18.1042 36.945 17.3782 37.107 16.5022 37.107ZM29.528 37.107C28.712 37.107 27.974 36.927 27.314 36.567C26.666 36.195 26.15 35.649 25.766 34.929C25.394 34.209 25.208 33.309 25.208 32.229C25.208 31.149 25.4 30.249 25.784 29.529C26.18 28.809 26.702 28.269 27.35 27.909C28.01 27.549 28.736 27.369 29.528 27.369C30.464 27.369 31.292 27.573 32.012 27.981C32.732 28.389 33.302 28.959 33.722 29.691C34.142 30.411 34.352 31.257 34.352 32.229C34.352 33.201 34.142 34.053 33.722 34.785C33.302 35.517 32.732 36.087 32.012 36.495C31.292 36.903 30.464 37.107 29.528 37.107ZM24.47 36.999V23.643H26.198V29.997L26.018 32.211L26.126 34.425V36.999H24.47ZM29.384 35.595C29.996 35.595 30.542 35.457 31.022 35.181C31.514 34.905 31.898 34.515 32.174 34.011C32.462 33.495 32.606 32.901 32.606 32.229C32.606 31.545 32.462 30.957 32.174 30.465C31.898 29.961 31.514 29.571 31.022 29.295C30.542 29.019 29.996 28.881 29.384 28.881C28.784 28.881 28.238 29.019 27.746 29.295C27.266 29.571 26.882 29.961 26.594 30.465C26.318 30.957 26.18 31.545 26.18 32.229C26.18 32.901 26.318 33.495 26.594 34.011C26.882 34.515 27.266 34.905 27.746 35.181C28.238 35.457 28.784 35.595 29.384 35.595ZM36.7396 36.999V27.459H38.3956V30.051L38.2336 29.403C38.4976 28.743 38.9416 28.239 39.5656 27.891C40.1896 27.543 40.9576 27.369 41.8696 27.369V29.043C41.7976 29.031 41.7256 29.025 41.6536 29.025C41.5936 29.025 41.5336 29.025 41.4736 29.025C40.5496 29.025 39.8176 29.301 39.2776 29.853C38.7376 30.405 38.4676 31.203 38.4676 32.247V36.999H36.7396ZM49.2534 36.999V34.983L49.1634 34.605V31.167C49.1634 30.435 48.9474 29.871 48.5154 29.475C48.0954 29.067 47.4594 28.863 46.6074 28.863C46.0434 28.863 45.4914 28.959 44.9514 29.151C44.4114 29.331 43.9554 29.577 43.5834 29.889L42.8634 28.593C43.3554 28.197 43.9434 27.897 44.6274 27.693C45.3234 27.477 46.0494 27.369 46.8054 27.369C48.1134 27.369 49.1214 27.687 49.8294 28.323C50.5374 28.959 50.8914 29.931 50.8914 31.239V36.999H49.2534ZM46.1214 37.107C45.4134 37.107 44.7894 36.987 44.2494 36.747C43.7214 36.507 43.3134 36.177 43.0254 35.757C42.7374 35.325 42.5934 34.839 42.5934 34.299C42.5934 33.783 42.7134 33.315 42.9534 32.895C43.2054 32.475 43.6074 32.139 44.1594 31.887C44.7234 31.635 45.4794 31.509 46.4274 31.509H49.4514V32.751H46.4994C45.6354 32.751 45.0534 32.895 44.7534 33.183C44.4534 33.471 44.3034 33.819 44.3034 34.227C44.3034 34.695 44.4894 35.073 44.8614 35.361C45.2334 35.637 45.7494 35.775 46.4094 35.775C47.0574 35.775 47.6214 35.631 48.1014 35.343C48.5934 35.055 48.9474 34.635 49.1634 34.083L49.5054 35.271C49.2774 35.835 48.8754 36.285 48.2994 36.621C47.7234 36.945 46.9974 37.107 46.1214 37.107ZM58.9232 36.999V27.459H60.6512V36.999H58.9232ZM59.7872 25.623C59.4512 25.623 59.1692 25.515 58.9412 25.299C58.7252 25.083 58.6172 24.819 58.6172 24.507C58.6172 24.183 58.7252 23.913 58.9412 23.697C59.1692 23.481 59.4512 23.373 59.7872 23.373C60.1232 23.373 60.3992 23.481 60.6152 23.697C60.8432 23.901 60.9572 24.159 60.9572 24.471C60.9572 24.795 60.8492 25.071 60.6332 25.299C60.4172 25.515 60.1352 25.623 59.7872 25.623ZM74.6705 37.143C73.7105 37.143 72.8225 36.987 72.0065 36.675C71.2025 36.351 70.5005 35.901 69.9005 35.325C69.3125 34.737 68.8505 34.053 68.5145 33.273C68.1785 32.493 68.0105 31.635 68.0105 30.699C68.0105 29.763 68.1785 28.905 68.5145 28.125C68.8505 27.345 69.3185 26.667 69.9185 26.091C70.5185 25.503 71.2205 25.053 72.0245 24.741C72.8405 24.417 73.7285 24.255 74.6885 24.255C75.6605 24.255 76.5545 24.423 77.3705 24.759C78.1985 25.083 78.9005 25.569 79.4765 26.217L78.3065 27.351C77.8265 26.847 77.2865 26.475 76.6865 26.235C76.0865 25.983 75.4445 25.857 74.7605 25.857C74.0525 25.857 73.3925 25.977 72.7805 26.217C72.1805 26.457 71.6585 26.793 71.2145 27.225C70.7705 27.657 70.4225 28.173 70.1705 28.773C69.9305 29.361 69.8105 30.003 69.8105 30.699C69.8105 31.395 69.9305 32.043 70.1705 32.643C70.4225 33.231 70.7705 33.741 71.2145 34.173C71.6585 34.605 72.1805 34.941 72.7805 35.181C73.3925 35.421 74.0525 35.541 74.7605 35.541C75.4445 35.541 76.0865 35.421 76.6865 35.181C77.2865 34.929 77.8265 34.545 78.3065 34.029L79.4765 35.163C78.9005 35.811 78.1985 36.303 77.3705 36.639C76.5545 36.975 75.6545 37.143 74.6705 37.143ZM85.2982 37.107C84.3382 37.107 83.4862 36.897 82.7422 36.477C81.9982 36.057 81.4102 35.481 80.9782 34.749C80.5462 34.005 80.3302 33.165 80.3302 32.229C80.3302 31.281 80.5462 30.441 80.9782 29.709C81.4102 28.977 81.9982 28.407 82.7422 27.999C83.4862 27.579 84.3382 27.369 85.2982 27.369C86.2462 27.369 87.0922 27.579 87.8362 27.999C88.5922 28.407 89.1802 28.977 89.6002 29.709C90.0322 30.429 90.2482 31.269 90.2482 32.229C90.2482 33.177 90.0322 34.017 89.6002 34.749C89.1802 35.481 88.5922 36.057 87.8362 36.477C87.0922 36.897 86.2462 37.107 85.2982 37.107ZM85.2982 35.595C85.9102 35.595 86.4562 35.457 86.9362 35.181C87.4282 34.905 87.8122 34.515 88.0882 34.011C88.3642 33.495 88.5022 32.901 88.5022 32.229C88.5022 31.545 88.3642 30.957 88.0882 30.465C87.8122 29.961 87.4282 29.571 86.9362 29.295C86.4562 29.019 85.9102 28.881 85.2982 28.881C84.6862 28.881 84.1402 29.019 83.6602 29.295C83.1802 29.571 82.7962 29.961 82.5082 30.465C82.2202 30.957 82.0762 31.545 82.0762 32.229C82.0762 32.901 82.2202 33.495 82.5082 34.011C82.7962 34.515 83.1802 34.905 83.6602 35.181C84.1402 35.457 84.6862 35.595 85.2982 35.595ZM98.4721 36.999V34.983L98.3821 34.605V31.167C98.3821 30.435 98.1661 29.871 97.7341 29.475C97.3141 29.067 96.6781 28.863 95.8261 28.863C95.2621 28.863 94.7101 28.959 94.1701 29.151C93.6301 29.331 93.1741 29.577 92.8021 29.889L92.0821 28.593C92.5741 28.197 93.1621 27.897 93.8461 27.693C94.5421 27.477 95.2681 27.369 96.0241 27.369C97.3321 27.369 98.3401 27.687 99.0481 28.323C99.7561 28.959 100.11 29.931 100.11 31.239V36.999H98.4721ZM95.3401 37.107C94.6321 37.107 94.0081 36.987 93.4681 36.747C92.9401 36.507 92.5321 36.177 92.2441 35.757C91.9561 35.325 91.8121 34.839 91.8121 34.299C91.8121 33.783 91.9321 33.315 92.1721 32.895C92.4241 32.475 92.8261 32.139 93.3781 31.887C93.9421 31.635 94.6981 31.509 95.6461 31.509H98.6701V32.751H95.7181C94.8541 32.751 94.2721 32.895 93.9721 33.183C93.6721 33.471 93.5221 33.819 93.5221 34.227C93.5221 34.695 93.7081 35.073 94.0801 35.361C94.4521 35.637 94.9681 35.775 95.6281 35.775C96.2761 35.775 96.8401 35.631 97.3201 35.343C97.8121 35.055 98.1661 34.635 98.3821 34.083L98.7241 35.271C98.4961 35.835 98.0941 36.285 97.5181 36.621C96.9421 36.945 96.2161 37.107 95.3401 37.107ZM106.584 37.107C105.624 37.107 104.88 36.849 104.352 36.333C103.824 35.817 103.56 35.079 103.56 34.119V25.371H105.288V34.047C105.288 34.563 105.414 34.959 105.666 35.235C105.93 35.511 106.302 35.649 106.782 35.649C107.322 35.649 107.772 35.499 108.132 35.199L108.672 36.441C108.408 36.669 108.09 36.837 107.718 36.945C107.358 37.053 106.98 37.107 106.584 37.107ZM101.94 28.881V27.459H108.024V28.881H101.94ZM113.497 37.107C112.705 37.107 111.949 36.999 111.229 36.783C110.521 36.567 109.963 36.303 109.555 35.991L110.275 34.623C110.683 34.899 111.187 35.133 111.787 35.325C112.387 35.517 112.999 35.613 113.623 35.613C114.427 35.613 115.003 35.499 115.351 35.271C115.711 35.043 115.891 34.725 115.891 34.317C115.891 34.017 115.783 33.783 115.567 33.615C115.351 33.447 115.063 33.321 114.703 33.237C114.355 33.153 113.965 33.081 113.533 33.021C113.101 32.949 112.669 32.865 112.237 32.769C111.805 32.661 111.409 32.517 111.049 32.337C110.689 32.145 110.401 31.887 110.185 31.563C109.969 31.227 109.861 30.783 109.861 30.231C109.861 29.655 110.023 29.151 110.347 28.719C110.671 28.287 111.127 27.957 111.715 27.729C112.315 27.489 113.023 27.369 113.839 27.369C114.463 27.369 115.093 27.447 115.729 27.603C116.377 27.747 116.905 27.957 117.313 28.233L116.575 29.601C116.143 29.313 115.693 29.115 115.225 29.007C114.757 28.899 114.289 28.845 113.821 28.845C113.065 28.845 112.501 28.971 112.129 29.223C111.757 29.463 111.571 29.775 111.571 30.159C111.571 30.483 111.679 30.735 111.895 30.915C112.123 31.083 112.411 31.215 112.759 31.311C113.119 31.407 113.515 31.491 113.947 31.563C114.379 31.623 114.811 31.707 115.243 31.815C115.675 31.911 116.065 32.049 116.413 32.229C116.773 32.409 117.061 32.661 117.277 32.985C117.505 33.309 117.619 33.741 117.619 34.281C117.619 34.857 117.451 35.355 117.115 35.775C116.779 36.195 116.305 36.525 115.693 36.765C115.081 36.993 114.349 37.107 113.497 37.107ZM120.193 29.835C119.857 29.835 119.569 29.721 119.329 29.493C119.089 29.253 118.969 28.953 118.969 28.593C118.969 28.233 119.089 27.939 119.329 27.711C119.569 27.483 119.857 27.369 120.193 27.369C120.517 27.369 120.793 27.483 121.021 27.711C121.261 27.939 121.381 28.233 121.381 28.593C121.381 28.953 121.261 29.253 121.021 29.493C120.793 29.721 120.517 29.835 120.193 29.835ZM120.193 37.107C119.857 37.107 119.569 36.993 119.329 36.765C119.089 36.525 118.969 36.225 118.969 35.865C118.969 35.505 119.089 35.211 119.329 34.983C119.569 34.755 119.857 34.641 120.193 34.641C120.517 34.641 120.793 34.755 121.021 34.983C121.261 35.211 121.381 35.505 121.381 35.865C121.381 36.225 121.261 36.525 121.021 36.765C120.793 36.993 120.517 37.107 120.193 37.107ZM2.89 58.999V46.399H11.782V47.965H4.69V58.999H2.89ZM4.51 53.905V52.357H11.008V53.905H4.51ZM19.6342 58.999V56.983L19.5442 56.605V53.167C19.5442 52.435 19.3282 51.871 18.8962 51.475C18.4762 51.067 17.8402 50.863 16.9882 50.863C16.4242 50.863 15.8722 50.959 15.3322 51.151C14.7922 51.331 14.3362 51.577 13.9642 51.889L13.2442 50.593C13.7362 50.197 14.3242 49.897 15.0082 49.693C15.7042 49.477 16.4302 49.369 17.1862 49.369C18.4942 49.369 19.5022 49.687 20.2102 50.323C20.9182 50.959 21.2722 51.931 21.2722 53.239V58.999H19.6342ZM16.5022 59.107C15.7942 59.107 15.1702 58.987 14.6302 58.747C14.1022 58.507 13.6942 58.177 13.4062 57.757C13.1182 57.325 12.9742 56.839 12.9742 56.299C12.9742 55.783 13.0942 55.315 13.3342 54.895C13.5862 54.475 13.9882 54.139 14.5402 53.887C15.1042 53.635 15.8602 53.509 16.8082 53.509H19.8322V54.751H16.8802C16.0162 54.751 15.4342 54.895 15.1342 55.183C14.8342 55.471 14.6842 55.819 14.6842 56.227C14.6842 56.695 14.8702 57.073 15.2422 57.361C15.6142 57.637 16.1302 57.775 16.7902 57.775C17.4382 57.775 18.0022 57.631 18.4822 57.343C18.9742 57.055 19.3282 56.635 19.5442 56.083L19.8862 57.271C19.6582 57.835 19.2562 58.285 18.6802 58.621C18.1042 58.945 17.3782 59.107 16.5022 59.107ZM15.9622 48.073L18.4102 45.733H20.6062L17.5822 48.073H15.9622ZM29.528 59.107C28.712 59.107 27.974 58.927 27.314 58.567C26.666 58.195 26.15 57.649 25.766 56.929C25.394 56.209 25.208 55.309 25.208 54.229C25.208 53.149 25.4 52.249 25.784 51.529C26.18 50.809 26.702 50.269 27.35 49.909C28.01 49.549 28.736 49.369 29.528 49.369C30.464 49.369 31.292 49.573 32.012 49.981C32.732 50.389 33.302 50.959 33.722 51.691C34.142 52.411 34.352 53.257 34.352 54.229C34.352 55.201 34.142 56.053 33.722 56.785C33.302 57.517 32.732 58.087 32.012 58.495C31.292 58.903 30.464 59.107 29.528 59.107ZM24.47 58.999V45.643H26.198V51.997L26.018 54.211L26.126 56.425V58.999H24.47ZM29.384 57.595C29.996 57.595 30.542 57.457 31.022 57.181C31.514 56.905 31.898 56.515 32.174 56.011C32.462 55.495 32.606 54.901 32.606 54.229C32.606 53.545 32.462 52.957 32.174 52.465C31.898 51.961 31.514 51.571 31.022 51.295C30.542 51.019 29.996 50.881 29.384 50.881C28.784 50.881 28.238 51.019 27.746 51.295C27.266 51.571 26.882 51.961 26.594 52.465C26.318 52.957 26.18 53.545 26.18 54.229C26.18 54.901 26.318 55.495 26.594 56.011C26.882 56.515 27.266 56.905 27.746 57.181C28.238 57.457 28.784 57.595 29.384 57.595ZM36.7396 58.999V49.459H38.3956V52.051L38.2336 51.403C38.4976 50.743 38.9416 50.239 39.5656 49.891C40.1896 49.543 40.9576 49.369 41.8696 49.369V51.043C41.7976 51.031 41.7256 51.025 41.6536 51.025C41.5936 51.025 41.5336 51.025 41.4736 51.025C40.5496 51.025 39.8176 51.301 39.2776 51.853C38.7376 52.405 38.4676 53.203 38.4676 54.247V58.999H36.7396ZM43.9993 58.999V49.459H45.7273V58.999H43.9993ZM44.8633 47.623C44.5273 47.623 44.2453 47.515 44.0173 47.299C43.8013 47.083 43.6933 46.819 43.6933 46.507C43.6933 46.183 43.8013 45.913 44.0173 45.697C44.2453 45.481 44.5273 45.373 44.8633 45.373C45.1993 45.373 45.4753 45.481 45.6913 45.697C45.9193 45.901 46.0333 46.159 46.0333 46.471C46.0333 46.795 45.9253 47.071 45.7093 47.299C45.4933 47.515 45.2113 47.623 44.8633 47.623ZM53.1847 59.107C52.2127 59.107 51.3427 58.897 50.5747 58.477C49.8187 58.057 49.2247 57.481 48.7927 56.749C48.3607 56.017 48.1447 55.177 48.1447 54.229C48.1447 53.281 48.3607 52.441 48.7927 51.709C49.2247 50.977 49.8187 50.407 50.5747 49.999C51.3427 49.579 52.2127 49.369 53.1847 49.369C54.0487 49.369 54.8167 49.543 55.4887 49.891C56.1727 50.227 56.7007 50.731 57.0727 51.403L55.7587 52.249C55.4467 51.781 55.0627 51.439 54.6067 51.223C54.1627 50.995 53.6827 50.881 53.1667 50.881C52.5427 50.881 51.9847 51.019 51.4927 51.295C51.0007 51.571 50.6107 51.961 50.3227 52.465C50.0347 52.957 49.8907 53.545 49.8907 54.229C49.8907 54.913 50.0347 55.507 50.3227 56.011C50.6107 56.515 51.0007 56.905 51.4927 57.181C51.9847 57.457 52.5427 57.595 53.1667 57.595C53.6827 57.595 54.1627 57.487 54.6067 57.271C55.0627 57.043 55.4467 56.695 55.7587 56.227L57.0727 57.055C56.7007 57.715 56.1727 58.225 55.4887 58.585C54.8167 58.933 54.0487 59.107 53.1847 59.107ZM65.2319 58.999V56.983L65.1419 56.605V53.167C65.1419 52.435 64.9259 51.871 64.4939 51.475C64.0739 51.067 63.4379 50.863 62.5859 50.863C62.0219 50.863 61.4699 50.959 60.9299 51.151C60.3899 51.331 59.9339 51.577 59.5619 51.889L58.8419 50.593C59.3339 50.197 59.9219 49.897 60.6059 49.693C61.3019 49.477 62.0279 49.369 62.7839 49.369C64.0919 49.369 65.0999 49.687 65.8079 50.323C66.5159 50.959 66.8699 51.931 66.8699 53.239V58.999H65.2319ZM62.0999 59.107C61.3919 59.107 60.7679 58.987 60.2279 58.747C59.6999 58.507 59.2919 58.177 59.0039 57.757C58.7159 57.325 58.5719 56.839 58.5719 56.299C58.5719 55.783 58.6919 55.315 58.9319 54.895C59.1839 54.475 59.5859 54.139 60.1379 53.887C60.7019 53.635 61.4579 53.509 62.4059 53.509H65.4299V54.751H62.4779C61.6139 54.751 61.0319 54.895 60.7319 55.183C60.4319 55.471 60.2819 55.819 60.2819 56.227C60.2819 56.695 60.4679 57.073 60.8399 57.361C61.2119 57.637 61.7279 57.775 62.3879 57.775C63.0359 57.775 63.5999 57.631 64.0799 57.343C64.5719 57.055 64.9259 56.635 65.1419 56.083L65.4839 57.271C65.2559 57.835 64.8539 58.285 64.2779 58.621C63.7019 58.945 62.9759 59.107 62.0999 59.107ZM78.8437 59.107C77.9197 59.107 77.0917 58.903 76.3597 58.495C75.6397 58.087 75.0697 57.517 74.6497 56.785C74.2297 56.053 74.0197 55.201 74.0197 54.229C74.0197 53.257 74.2297 52.411 74.6497 51.691C75.0697 50.959 75.6397 50.389 76.3597 49.981C77.0917 49.573 77.9197 49.369 78.8437 49.369C79.6477 49.369 80.3737 49.549 81.0217 49.909C81.6697 50.269 82.1857 50.809 82.5697 51.529C82.9657 52.249 83.1637 53.149 83.1637 54.229C83.1637 55.309 82.9717 56.209 82.5877 56.929C82.2157 57.649 81.7057 58.195 81.0577 58.567C80.4097 58.927 79.6717 59.107 78.8437 59.107ZM78.9877 57.595C79.5877 57.595 80.1277 57.457 80.6077 57.181C81.0997 56.905 81.4837 56.515 81.7597 56.011C82.0477 55.495 82.1917 54.901 82.1917 54.229C82.1917 53.545 82.0477 52.957 81.7597 52.465C81.4837 51.961 81.0997 51.571 80.6077 51.295C80.1277 51.019 79.5877 50.881 78.9877 50.881C78.3757 50.881 77.8297 51.019 77.3497 51.295C76.8697 51.571 76.4857 51.961 76.1977 52.465C75.9097 52.957 75.7657 53.545 75.7657 54.229C75.7657 54.901 75.9097 55.495 76.1977 56.011C76.4857 56.515 76.8697 56.905 77.3497 57.181C77.8297 57.457 78.3757 57.595 78.9877 57.595ZM82.2457 58.999V56.425L82.3537 54.211L82.1737 51.997V45.643H83.9017V58.999H82.2457ZM91.4192 59.107C90.3992 59.107 89.4992 58.897 88.7192 58.477C87.9512 58.057 87.3512 57.481 86.9192 56.749C86.4992 56.017 86.2892 55.177 86.2892 54.229C86.2892 53.281 86.4932 52.441 86.9012 51.709C87.3212 50.977 87.8912 50.407 88.6112 49.999C89.3432 49.579 90.1652 49.369 91.0772 49.369C92.0012 49.369 92.8172 49.573 93.5252 49.981C94.2332 50.389 94.7852 50.965 95.1812 51.709C95.5892 52.441 95.7932 53.299 95.7932 54.283C95.7932 54.355 95.7872 54.439 95.7752 54.535C95.7752 54.631 95.7692 54.721 95.7572 54.805H87.6392V53.563H94.8572L94.1552 53.995C94.1672 53.383 94.0412 52.837 93.7772 52.357C93.5132 51.877 93.1472 51.505 92.6792 51.241C92.2232 50.965 91.6892 50.827 91.0772 50.827C90.4772 50.827 89.9432 50.965 89.4752 51.241C89.0072 51.505 88.6412 51.883 88.3772 52.375C88.1132 52.855 87.9812 53.407 87.9812 54.031V54.319C87.9812 54.955 88.1252 55.525 88.4132 56.029C88.7132 56.521 89.1272 56.905 89.6552 57.181C90.1832 57.457 90.7892 57.595 91.4732 57.595C92.0372 57.595 92.5472 57.499 93.0032 57.307C93.4712 57.115 93.8792 56.827 94.2272 56.443L95.1812 57.559C94.7492 58.063 94.2092 58.447 93.5612 58.711C92.9252 58.975 92.2112 59.107 91.4192 59.107ZM108.913 59.143C107.953 59.143 107.065 58.987 106.249 58.675C105.445 58.351 104.743 57.901 104.143 57.325C103.555 56.737 103.093 56.053 102.757 55.273C102.421 54.493 102.253 53.635 102.253 52.699C102.253 51.763 102.421 50.905 102.757 50.125C103.093 49.345 103.561 48.667 104.161 48.091C104.761 47.503 105.463 47.053 106.267 46.741C107.083 46.417 107.971 46.255 108.931 46.255C109.903 46.255 110.797 46.423 111.613 46.759C112.441 47.083 113.143 47.569 113.719 48.217L112.549 49.351C112.069 48.847 111.529 48.475 110.929 48.235C110.329 47.983 109.687 47.857 109.003 47.857C108.295 47.857 107.635 47.977 107.023 48.217C106.423 48.457 105.901 48.793 105.457 49.225C105.013 49.657 104.665 50.173 104.413 50.773C104.173 51.361 104.053 52.003 104.053 52.699C104.053 53.395 104.173 54.043 104.413 54.643C104.665 55.231 105.013 55.741 105.457 56.173C105.901 56.605 106.423 56.941 107.023 57.181C107.635 57.421 108.295 57.541 109.003 57.541C109.687 57.541 110.329 57.421 110.929 57.181C111.529 56.929 112.069 56.545 112.549 56.029L113.719 57.163C113.143 57.811 112.441 58.303 111.613 58.639C110.797 58.975 109.897 59.143 108.913 59.143ZM115.859 58.999V49.459H117.515V52.051L117.353 51.403C117.617 50.743 118.061 50.239 118.685 49.891C119.309 49.543 120.077 49.369 120.989 49.369V51.043C120.917 51.031 120.845 51.025 120.773 51.025C120.713 51.025 120.653 51.025 120.593 51.025C119.669 51.025 118.937 51.301 118.397 51.853C117.857 52.405 117.587 53.203 117.587 54.247V58.999H115.859ZM127.279 59.107C126.259 59.107 125.359 58.897 124.579 58.477C123.811 58.057 123.211 57.481 122.779 56.749C122.359 56.017 122.149 55.177 122.149 54.229C122.149 53.281 122.353 52.441 122.761 51.709C123.181 50.977 123.751 50.407 124.471 49.999C125.203 49.579 126.025 49.369 126.937 49.369C127.861 49.369 128.677 49.573 129.385 49.981C130.093 50.389 130.645 50.965 131.041 51.709C131.449 52.441 131.653 53.299 131.653 54.283C131.653 54.355 131.647 54.439 131.635 54.535C131.635 54.631 131.629 54.721 131.617 54.805H123.499V53.563H130.717L130.015 53.995C130.027 53.383 129.901 52.837 129.637 52.357C129.373 51.877 129.007 51.505 128.539 51.241C128.083 50.965 127.549 50.827 126.937 50.827C126.337 50.827 125.803 50.965 125.335 51.241C124.867 51.505 124.501 51.883 124.237 52.375C123.973 52.855 123.841 53.407 123.841 54.031V54.319C123.841 54.955 123.985 55.525 124.273 56.029C124.573 56.521 124.987 56.905 125.515 57.181C126.043 57.457 126.649 57.595 127.333 57.595C127.897 57.595 128.407 57.499 128.863 57.307C129.331 57.115 129.739 56.827 130.087 56.443L131.041 57.559C130.609 58.063 130.069 58.447 129.421 58.711C128.785 58.975 128.071 59.107 127.279 59.107ZM139.71 58.999V56.983L139.62 56.605V53.167C139.62 52.435 139.404 51.871 138.972 51.475C138.552 51.067 137.916 50.863 137.064 50.863C136.5 50.863 135.948 50.959 135.408 51.151C134.868 51.331 134.412 51.577 134.04 51.889L133.32 50.593C133.812 50.197 134.4 49.897 135.084 49.693C135.78 49.477 136.506 49.369 137.262 49.369C138.57 49.369 139.578 49.687 140.286 50.323C140.994 50.959 141.348 51.931 141.348 53.239V58.999H139.71ZM136.578 59.107C135.87 59.107 135.246 58.987 134.706 58.747C134.178 58.507 133.77 58.177 133.482 57.757C133.194 57.325 133.05 56.839 133.05 56.299C133.05 55.783 133.17 55.315 133.41 54.895C133.662 54.475 134.064 54.139 134.616 53.887C135.18 53.635 135.936 53.509 136.884 53.509H139.908V54.751H136.956C136.092 54.751 135.51 54.895 135.21 55.183C134.91 55.471 134.76 55.819 134.76 56.227C134.76 56.695 134.946 57.073 135.318 57.361C135.69 57.637 136.206 57.775 136.866 57.775C137.514 57.775 138.078 57.631 138.558 57.343C139.05 57.055 139.404 56.635 139.62 56.083L139.962 57.271C139.734 57.835 139.332 58.285 138.756 58.621C138.18 58.945 137.454 59.107 136.578 59.107ZM148.704 59.107C147.732 59.107 146.862 58.897 146.094 58.477C145.338 58.057 144.744 57.481 144.312 56.749C143.88 56.017 143.664 55.177 143.664 54.229C143.664 53.281 143.88 52.441 144.312 51.709C144.744 50.977 145.338 50.407 146.094 49.999C146.862 49.579 147.732 49.369 148.704 49.369C149.568 49.369 150.336 49.543 151.008 49.891C151.692 50.227 152.22 50.731 152.592 51.403L151.278 52.249C150.966 51.781 150.582 51.439 150.126 51.223C149.682 50.995 149.202 50.881 148.686 50.881C148.062 50.881 147.504 51.019 147.012 51.295C146.52 51.571 146.13 51.961 145.842 52.465C145.554 52.957 145.41 53.545 145.41 54.229C145.41 54.913 145.554 55.507 145.842 56.011C146.13 56.515 146.52 56.905 147.012 57.181C147.504 57.457 148.062 57.595 148.686 57.595C149.202 57.595 149.682 57.487 150.126 57.271C150.582 57.043 150.966 56.695 151.278 56.227L152.592 57.055C152.22 57.715 151.692 58.225 151.008 58.585C150.336 58.933 149.568 59.107 148.704 59.107ZM154.706 58.999V49.459H156.434V58.999H154.706ZM155.57 47.623C155.234 47.623 154.952 47.515 154.724 47.299C154.508 47.083 154.4 46.819 154.4 46.507C154.4 46.183 154.508 45.913 154.724 45.697C154.952 45.481 155.234 45.373 155.57 45.373C155.906 45.373 156.182 45.481 156.398 45.697C156.626 45.901 156.74 46.159 156.74 46.471C156.74 46.795 156.632 47.071 156.416 47.299C156.2 47.515 155.918 47.623 155.57 47.623ZM163.82 59.107C162.86 59.107 162.008 58.897 161.264 58.477C160.52 58.057 159.932 57.481 159.5 56.749C159.068 56.005 158.852 55.165 158.852 54.229C158.852 53.281 159.068 52.441 159.5 51.709C159.932 50.977 160.52 50.407 161.264 49.999C162.008 49.579 162.86 49.369 163.82 49.369C164.768 49.369 165.614 49.579 166.358 49.999C167.114 50.407 167.702 50.977 168.122 51.709C168.554 52.429 168.77 53.269 168.77 54.229C168.77 55.177 168.554 56.017 168.122 56.749C167.702 57.481 167.114 58.057 166.358 58.477C165.614 58.897 164.768 59.107 163.82 59.107ZM163.82 57.595C164.432 57.595 164.978 57.457 165.458 57.181C165.95 56.905 166.334 56.515 166.61 56.011C166.886 55.495 167.024 54.901 167.024 54.229C167.024 53.545 166.886 52.957 166.61 52.465C166.334 51.961 165.95 51.571 165.458 51.295C164.978 51.019 164.432 50.881 163.82 50.881C163.208 50.881 162.662 51.019 162.182 51.295C161.702 51.571 161.318 51.961 161.03 52.465C160.742 52.957 160.598 53.545 160.598 54.229C160.598 54.901 160.742 55.495 161.03 56.011C161.318 56.515 161.702 56.905 162.182 57.181C162.662 57.457 163.208 57.595 163.82 57.595ZM162.452 48.073L164.9 45.733H167.096L164.072 48.073H162.452ZM171.159 58.999V49.459H172.815V52.033L172.545 51.349C172.857 50.725 173.337 50.239 173.985 49.891C174.633 49.543 175.389 49.369 176.253 49.369C177.033 49.369 177.717 49.519 178.305 49.819C178.905 50.119 179.373 50.575 179.709 51.187C180.045 51.799 180.213 52.573 180.213 53.509V58.999H178.485V53.707C178.485 52.783 178.257 52.087 177.801 51.619C177.357 51.151 176.727 50.917 175.911 50.917C175.299 50.917 174.765 51.037 174.309 51.277C173.853 51.517 173.499 51.871 173.247 52.339C173.007 52.807 172.887 53.389 172.887 54.085V58.999H171.159Z" fill="#FF4A1A"/>
</g>
<defs>
<clipPath id="clip0_1933_2039">
<rect width="527" height="328" fill="white"/>
</clipPath>
</defs>
</svg>
