<svg width="83" height="140" viewBox="0 0 83 140" fill="none" xmlns="http://www.w3.org/2000/svg">
<path d="M57.17 119.73H25.37C24.36 119.73 23.42 120.27 22.91 121.15L13.41 137.65C12.9 138.53 11.96 139.07 10.95 139.07H6.96999C4.78999 139.06 3.42999 136.7 4.51999 134.81L15.61 115.66C16.37 114.35 15.97 112.68 14.7 111.86L2.89999 104.22C1.63999 103.4 1.13 101.11 0.669998 99.64L0 85.81C0.38 74.31 2.37999 46.19 6.50999 38.45C9.53999 32.78 22.61 28.54 32.16 26.6C34.19 26.19 35.12 23.83 33.91 22.16L24.33 8.99C23.81 8.27 22.97 7.84 22.08 7.82L19.3 7.78C17.75 7.76 16.51 6.49 16.51 4.94V2.84C16.52 1.26 17.79 0 19.36 0H63.16C64.72 0 65.98 1.26 65.99 2.81L66.01 4.89C66.02 6.47 64.74 7.75 63.17 7.75H60.63C59.72 7.74 58.87 8.17 58.33 8.9L48.62 22.19C47.39 23.87 48.33 26.25 50.37 26.64C59.77 28.46 70.43 31.67 75.93 38.04C76.21 38.37 76.4 38.76 76.51 39.18L78.89 48.56C81 61.42 82.21 74.17 82.55 87.24L81.66 100.47C81.06 102.03 80.38 103.85 79.03 104.71L67.85 111.83C66.57 112.65 66.16 114.32 66.92 115.64L77.96 134.78C79.04 136.66 77.7 139.01 75.53 139.03L71.56 139.06C70.54 139.06 69.59 138.52 69.08 137.64L59.61 121.15C59.1 120.27 58.17 119.73 57.15 119.73H57.17ZM43.93 7.77L38.62 7.8C36.31 7.81 34.98 10.44 36.34 12.3L38.98 15.93C40.11 17.48 42.43 17.48 43.56 15.93L46.23 12.27C47.6 10.39 46.25 7.75 43.92 7.77H43.93ZM44.88 31.23L37.5 31.25C36.06 31.25 34.89 32.43 34.89 33.87C34.89 35.31 36.07 36.48 37.51 36.48L44.89 36.46C46.33 36.46 47.5 35.28 47.5 33.84C47.5 32.4 46.32 31.23 44.88 31.23ZM73.13 70.78C75.35 70.29 76.79 68.72 76.52 66.66L74.33 49.59C74.12 47.95 72.44 46.53 70.69 46.53H12.23C10.25 46.53 8.43999 47.71 8.18999 49.73L6.01999 67.12C5.73999 69.38 8.32999 70.8 10.32 70.8H73.12L73.13 70.78ZM13.54 82.79C13.99 80.41 11.95 78.37 9.56999 78.82C8.24999 79.07 7.17 80.15 6.92 81.47C6.47 83.85 8.51 85.89 10.89 85.44C12.21 85.19 13.29 84.11 13.54 82.79ZM21.54 82.77C21.99 80.4 19.95 78.36 17.58 78.81C16.26 79.06 15.19 80.14 14.94 81.45C14.49 83.82 16.53 85.86 18.9 85.41C20.22 85.16 21.29 84.08 21.54 82.77ZM67.61 82.76C68.06 80.38 66.02 78.34 63.64 78.79C62.32 79.04 61.24 80.12 60.99 81.44C60.54 83.82 62.58 85.86 64.96 85.41C66.28 85.16 67.36 84.08 67.61 82.76ZM75.65 82.79C76.1 80.4 74.05 78.34 71.66 78.8C70.33 79.05 69.25 80.14 69 81.46C68.55 83.85 70.6 85.91 72.99 85.45C74.32 85.2 75.4 84.11 75.65 82.79Z" fill="#FF4A1A"/>
</svg>
