<svg width="76" height="112" viewBox="0 0 76 112" fill="none" xmlns="http://www.w3.org/2000/svg">
<path d="M67.334 110.79L56.1916 94.379C55.6638 93.6055 54.7876 93.1395 53.8516 93.1395H21.9977C21.0617 93.1296 20.1755 93.5956 19.6577 94.369L8.72439 110.581C8.19665 111.365 7.32039 111.831 6.37443 111.821H2.81962C0.579196 111.801 -0.76506 109.322 0.469664 107.458L13.2351 88.1121C14.1612 86.7041 13.6533 84.7903 12.1398 84.0566C7.21086 81.6768 3.47681 76.7089 3.46686 70.8586L3.36728 14.3879C3.98465 6.82211 9.77988 -0.00990506 17.6961 1.07804e-05L58.7805 0.0793544C66.3581 0.0991861 71.9044 7.20884 72.482 14.2987L72.3923 70.8982C72.3923 76.7486 68.718 81.6569 63.7493 83.9872C62.2059 84.711 61.6881 86.6347 62.6241 88.0527L75.5289 107.567C76.7537 109.411 75.4493 111.87 73.2387 111.92L69.7536 111.999C68.7977 112.019 67.8916 111.553 67.3539 110.76L67.334 110.79ZM46.9311 12.4047C48.8828 9.12259 48.1957 3.20283 46.2242 3.19291L30.1429 3.09378C29.4459 3.09378 27.9224 4.15475 27.9224 4.92818L27.9423 10.5703C27.9423 11.4726 29.5554 12.494 30.5312 12.494L46.9311 12.4147V12.4047ZM57.1077 40.9227C60.9313 40.9227 63.9683 37.7694 63.9584 34.3485L63.9385 21.9339C63.9385 18.4931 60.6226 15.5381 57.1176 15.5381L18.0346 15.4985C14.5395 16.2719 11.8311 18.6517 11.8012 22.2908L11.7315 34.5666C12.4883 38.2851 15.1868 40.9524 19.1399 40.9524L57.0977 40.9227H57.1077ZM25.2339 71.5229C26.14 66.7633 22.0275 62.6681 17.238 63.5704C14.5694 64.0762 12.4087 66.218 11.9008 68.8853C10.9947 73.6449 15.1071 77.7402 19.8967 76.8378C22.5653 76.3321 24.726 74.1903 25.2339 71.5229ZM63.819 71.513C64.7251 66.7435 60.6027 62.6384 55.8132 63.5407C53.1346 64.0464 50.9739 66.1981 50.476 68.8556C49.5699 73.6251 53.6922 77.7303 58.4818 76.8279C61.1603 76.3222 63.3211 74.1705 63.819 71.513Z" fill="#FF4A1A"/>
</svg>
