<svg width="281" height="58" viewBox="0 0 281 58" fill="none" xmlns="http://www.w3.org/2000/svg">
<path d="M274.604 58L18.4886 54.4794C14.8115 54.4269 11.2626 53.954 9.25304 53.5441C6.88002 53.0712 3.63048 48.9096 6.3028 48.0794L34.3087 39.3147C35.8052 38.8523 35.7411 37.7699 34.2018 37.339L4.54976 29.0578C2.83947 28.5849 -0.260424 26.9875 0.0174975 26.1152C0.295419 25.243 3.5022 23.0886 5.49041 22.7418L31.7433 18.1808C33.5605 17.8656 33.8598 16.6675 32.2564 16.1421L5.59731 7.41946C-0.45283 5.43323 1.30021 0.62004 8.50479 0.115601C8.82547 0.0945823 9.14615 0.0840732 9.46683 0.0840732L251.002 0C253.503 0 258.292 1.36619 258.72 2.34354C259.147 3.32089 257.18 5.4017 255.556 6.0848L226.716 18.3805C225.091 19.0741 225.626 20.3772 227.678 20.703L258.891 25.6108C260.879 25.9261 264.449 27.2712 265.112 28.1855C265.775 29.0998 263.273 31.2752 261.777 31.9688L239.8 42.1732C238.324 42.8563 238.795 44.0649 240.697 44.4222L271.269 50.2863C273.193 50.6541 279.863 51.7681 280.569 53.0922C282.493 56.7284 277.169 58.021 274.604 57.9895V58Z" fill="#0B4EDB"/>
</svg>
