<svg width="99" height="24" viewBox="0 0 99 24" fill="none" xmlns="http://www.w3.org/2000/svg">
<g clip-path="url(#clip0_1581_2040)">
<path d="M46.0015 21.6384C45.9079 22.2838 45.2525 23.4824 44.9182 23.9008C44.4969 24.4185 42.4171 22.8795 42.484 22.1703L43.1661 2.31926C43.233 1.65259 44.4233 0.333443 44.8647 0.0710314C45.4063 -0.25521 46.7705 0.680961 47.0982 1.39018L51.9799 13.5178L53.0766 2.05685C53.1368 1.41146 54.0864 0.326351 54.5545 0.0994002C55.143 -0.184288 56.5941 1.48947 56.5473 2.24124L55.3369 21.9434C55.2968 22.6171 54.2602 23.8583 53.7052 23.8937C53.1502 23.9292 51.806 23.149 51.5318 22.5391L46.0817 10.22L46.0015 21.6384Z" fill="#551909"/>
<path d="M12.8389 21.6382C12.8456 22.1843 12.2973 23.4822 11.896 23.8085C11.3945 24.2198 9.88985 23 9.85642 22.1985L9.52205 14.4468L1.96547 14.4751C1.40374 14.4751 0.253536 13.7517 0.0462317 13.2978C-0.221258 12.7234 0.935635 11.2907 1.6378 11.2765L9.27463 11.1347L9.06732 2.01413C9.05395 1.37584 10.0437 -0.0213281 10.6321 0.0637783C11.2206 0.148885 12.1234 1.4113 12.1435 2.07796L12.4377 11.0283L20.4624 10.9078C21.0642 10.9007 22.0205 11.7375 22.1743 12.234C22.3281 12.7304 21.2782 13.9361 20.6831 13.9716L12.7386 14.4255L12.8456 21.6382H12.8389Z" fill="#551909"/>
<path d="M71.3933 10.5956C72.0018 10.7304 71.9684 12.1772 71.6474 12.624C71.3264 13.0708 71.0455 13.7587 70.3501 13.6169L63.5558 13.6665L63.6829 22.0708C63.6561 22.7233 62.7601 23.7587 62.2652 23.9006C61.7703 24.0424 60.6335 22.7375 60.6603 22.163L60.2256 0.0708008H75.8135C76.5558 0.255198 77.5656 1.07789 77.7194 1.67364C77.9067 2.39704 75.847 2.8864 75.0913 2.7091L63.2482 2.85803L63.6026 10.3048L71.4 10.5956H71.3933Z" fill="#551909"/>
<path d="M36.2449 20.9006C36.1914 21.8084 35.3956 23.546 34.8072 23.8439C34.0782 24.2198 32.4733 22.234 32.5134 21.312L33.3293 2.60275C33.3694 1.61694 34.6935 -0.184483 35.4558 0.0850204C36.3586 0.411262 37.3282 2.33325 37.2614 3.49637L36.2382 20.8935L36.2449 20.9006Z" fill="#551909"/>
<path d="M98.022 8.83678C96.2231 2.67366 90.6326 -1.48946 84.3532 0.624011C78.4417 2.61692 75.8805 9.27649 77.4721 15.1772C78.97 20.7162 84.2195 25.163 90.3517 23.5744C96.9119 21.8722 99.7473 14.7446 98.022 8.83678ZM89.7833 19.7729C85.6038 21.0212 82.2 17.9857 81.0631 14.4254C79.8661 10.6807 81.0966 5.99281 85.129 4.43961C89.1213 2.89351 93.2072 5.75876 94.4242 9.57437C95.648 13.3971 94.2437 18.4396 89.79 19.7729H89.7833Z" fill="#551909"/>
</g>
<defs>
<clipPath id="clip0_1581_2040">
<rect width="98.5165" height="24" fill="white"/>
</clipPath>
</defs>
</svg>
