<svg width="19" height="24" viewBox="0 0 19 24" fill="none" xmlns="http://www.w3.org/2000/svg">
<path d="M9.96215 6.5619C10.3262 7.58294 9.89305 8.80574 9.58011 9.87575L8.85708 12.3493C8.56617 13.3434 9.09141 14.3336 10.0498 14.7523C11.3171 15.3056 12.6945 14.7797 13.5928 13.7988C15.1415 12.1074 15.7008 9.27292 15.5296 7.03937C15.3688 4.94342 14.062 3.38223 12.0436 2.70594C10.7803 2.28284 9.46094 2.25492 8.16159 2.4988C4.7968 3.13101 2.44796 6.14271 2.76891 9.48154C2.85203 10.3444 3.19252 11.1255 3.76483 11.7817C3.85496 11.885 3.9541 12.101 3.92306 12.221L3.55653 13.6333C3.49995 13.8507 3.21054 13.9849 2.98923 13.908C1.01291 13.2219 0.115136 11.1132 0.0109873 9.13874C-0.177781 5.55408 2.08394 2.37686 5.39816 0.933203C8.9422 -0.610355 13.5808 -0.304778 16.4699 2.34307C17.8834 3.63835 18.8007 5.34743 18.962 7.25288C19.1022 8.90711 18.8488 10.5285 18.3005 12.0829C17.4418 14.5167 15.6548 16.5015 13.0696 17.1606C11.2079 17.6131 9.0794 17.261 7.94478 15.6558L7.12912 18.7894C6.87826 19.7541 6.5533 20.6474 6.05659 21.5117C5.56439 22.3677 5.03163 23.1468 4.41375 23.922C4.38421 23.9593 4.27005 24.0058 4.22248 23.9994C4.1649 23.9916 4.07978 23.8848 4.07127 23.8168C3.90803 22.5489 3.79187 21.3124 3.90603 20.0347C3.97112 19.3056 4.11633 18.6352 4.29008 17.9177L5.93893 11.1201C5.27248 9.53835 5.28299 7.53838 6.40359 6.23576C6.86124 5.72107 7.44908 5.39199 8.14907 5.35673C8.97975 5.3156 9.68826 5.79355 9.96215 6.5619Z" fill="#551909"/>
</svg>
