<svg width="384" height="204" viewBox="0 0 384 204" fill="none" xmlns="http://www.w3.org/2000/svg">
<g clip-path="url(#clip0_2105_6446)">
<path d="M218.056 193.981C203.443 207.319 183.757 205.931 170.955 191.506C160.81 180.039 154.711 165.916 151.269 150.465C143.297 114.795 145.894 77.6767 159.179 43.5158C164.674 29.3323 172.525 17.0803 183.998 8.02701C197.646 -2.77654 214.916 -1.26767 227.296 11.4069C237.018 21.3655 242.996 34.7039 246.74 48.7666C256.1 84.1347 254.168 121.555 241.97 156.138C236.776 170.744 229.53 183.479 218.117 193.921L218.056 193.981ZM213.709 190.842C223.672 182.212 230.617 171.227 235.267 158.975C248.612 123.969 251.028 85.885 241.668 49.7323C238.467 37.4803 233.153 27.0388 225.605 17.5631C215.097 4.34535 197.948 2.23292 184.964 13.7607C145.471 49.0684 140.157 150.042 175.302 188.609C185.81 200.137 201.329 201.465 213.588 190.842H213.709Z" fill="#551909"/>
<path d="M96.6184 197.965L96.1353 105.441L4.89075 107.372C3.01876 107.312 -0.181745 103.147 0.059802 101.095L1.08638 4.10455C1.20715 3.07851 1.81102 0.302182 2.65644 0.603958L6.58158 1.99212L5.19268 102.181L96.4372 100.25L97.8865 2.9578L100.483 0.603958C101.268 -0.120303 103.14 3.13887 103.08 4.22526L101.812 197.965L127.536 197.844C128.563 197.844 130.677 199.594 130.797 200.5C130.918 201.405 128.563 203.035 127.114 203.035L70.7728 203.518C69.5651 203.518 67.21 201.888 66.6061 201.465C65.8211 200.922 68.297 198.387 69.2631 198.327L96.6788 197.965H96.6184Z" fill="#551909"/>
<path d="M345.593 199.051L342.272 81.4796L268.841 83.1092L268.66 2.11277C269.626 1.20745 271.317 -0.422138 271.8 0.121057L273.974 2.4749L274.518 77.979L342.332 76.1684L344.144 4.46662C344.687 3.25952 345.835 1.811 346.68 1.2678C347.525 0.724608 349.337 3.682 349.337 4.82875L350.847 198.508L379.893 199.051C380.799 198.991 383.154 200.379 383.818 200.862C384.663 201.526 382.127 203.94 380.376 204.061H299.035C297.948 204.121 295.23 202.733 295.532 202.19L297.465 198.931L345.593 199.051Z" fill="#551909"/>
</g>
<defs>
<clipPath id="clip0_2105_6446">
<rect width="384" height="204" fill="white"/>
</clipPath>
</defs>
</svg>
